<svg width="1395" height="780" viewBox="0 0 1395 780" fill="none" xmlns="http://www.w3.org/2000/svg">
<g clip-path="url(#clip0_4_8)">
<path d="M194.142 153.9V157.19H134.687V309H130.927V157.19H71.4722V153.9H194.142ZM243.479 309V153.9H346.174V157.19H247.239V228.16H326.669V231.45H247.239V305.71H350.169V309H243.479ZM450.046 151.55C464.773 151.55 476.993 154.448 486.706 160.245C496.42 165.885 503.078 174.972 506.681 187.505L503.626 189.855C500.493 177.792 494.305 168.94 485.061 163.3C475.818 157.66 464.146 154.84 450.046 154.84C439.706 154.84 430.698 156.563 423.021 160.01C415.501 163.457 409.626 168.078 405.396 173.875C401.166 179.672 399.051 186.173 399.051 193.38C399.051 202.467 402.106 209.752 408.216 215.235C414.326 220.718 424.901 225.027 439.941 228.16L466.966 233.8C482.32 236.933 493.208 241.32 499.631 246.96C506.211 252.6 509.501 260.198 509.501 269.755C509.501 278.058 507.073 285.343 502.216 291.61C497.516 297.877 490.936 302.733 482.476 306.18C474.173 309.627 464.46 311.35 453.336 311.35C442.526 311.35 432.656 309.862 423.726 306.885C414.953 303.908 407.668 299.365 401.871 293.255C396.075 287.145 392.315 279.39 390.591 269.99L394.116 268.11C395.526 277.197 398.973 284.717 404.456 290.67C409.94 296.623 416.911 301.01 425.371 303.83C433.831 306.65 443.153 308.06 453.336 308.06C463.05 308.06 471.823 306.65 479.656 303.83C487.646 300.853 493.991 296.545 498.691 290.905C503.391 285.108 505.741 278.058 505.741 269.755C505.741 261.452 502.608 254.715 496.341 249.545C490.231 244.375 479.891 240.302 465.321 237.325L438.296 231.685C427.956 229.492 419.653 226.75 413.386 223.46C407.12 220.013 402.498 215.862 399.521 211.005C396.701 206.148 395.291 200.273 395.291 193.38C395.291 186.017 397.485 179.202 401.871 172.935C406.258 166.512 412.525 161.342 420.671 157.425C428.818 153.508 438.61 151.55 450.046 151.55ZM661.893 153.9V157.19H602.438V309H598.678V157.19H539.223V153.9H661.893ZM711.23 309V153.9H813.925V157.19H714.99V228.16H794.42V231.45H714.99V305.71H817.92V309H711.23ZM1009.04 153.9C1034.26 153.9 1053.29 160.245 1066.14 172.935C1078.99 185.625 1085.41 204.347 1085.41 229.1C1085.41 255.263 1078.99 275.16 1066.14 288.79C1053.29 302.263 1034.26 309 1009.04 309H961.331V153.9H1009.04ZM1009.04 305.71C1032.85 305.71 1050.87 299.208 1063.09 286.205C1075.46 273.202 1081.65 254.167 1081.65 229.1C1081.65 205.443 1075.46 187.583 1063.09 175.52C1050.87 163.3 1032.85 157.19 1009.04 157.19H965.091V305.71H1009.04ZM1145.25 309V153.9H1247.94V157.19H1149.01V228.16H1228.44V231.45H1149.01V305.71H1251.94V309H1145.25ZM241.201 428L154.801 516.5L151.201 520.4L98.1012 574.7V542.3L209.701 428H241.201ZM110.101 428V626H86.1012V428H110.101ZM157.201 501.2L242.101 626H213.301L137.401 514.7L157.201 501.2ZM312.976 626V428H451.876V450.5H336.976V514.4H426.376V536.9H336.976V603.5H456.376V626H312.976ZM558.285 603.5H671.685V626H534.285V428H558.285V603.5ZM767.582 603.5H880.982V626H743.582V428H767.582V603.5ZM952.879 626V428H1091.78V450.5H976.879V514.4H1066.28V536.9H976.879V603.5H1096.28V626H952.879ZM1249.19 428C1269.39 428 1285.59 433.2 1297.79 443.6C1309.99 454 1316.09 468.1 1316.09 485.9C1316.09 503.7 1309.89 517.6 1297.49 527.6C1285.29 537.4 1269.09 542.3 1248.89 542.3L1246.79 543.8H1198.19V626H1174.19V428H1249.19ZM1248.89 521.3C1263.09 521.3 1273.59 518.4 1280.39 512.6C1287.39 506.6 1290.89 497.7 1290.89 485.9C1290.89 474.1 1287.39 465.3 1280.39 459.5C1273.59 453.5 1263.09 450.5 1248.89 450.5H1198.19V521.3H1248.89ZM1262.69 526.1L1328.09 626H1299.59L1242.59 539.3L1262.69 526.1Z" fill="#202072"/>
</g>
<defs>
<clipPath id="clip0_4_8">
<rect width="1395" height="780" fill="white"/>
</clipPath>
</defs>
</svg>
