<svg width="1258" height="724" viewBox="0 0 1258 724" fill="none" xmlns="http://www.w3.org/2000/svg">
<path d="M123.142 2.89999V6.18999H63.6872V158H59.9272V6.18999H0.472207V2.89999H123.142ZM172.479 158V2.89999H275.174V6.18999H176.239V77.16H255.669V80.45H176.239V154.71H279.169V158H172.479ZM379.046 0.549996C393.773 0.549996 405.993 3.44833 415.706 9.245C425.42 14.885 432.078 23.9717 435.681 36.505L432.626 38.855C429.493 26.7917 423.305 17.94 414.061 12.3C404.818 6.66 393.146 3.84 379.046 3.84C368.706 3.84 359.698 5.56333 352.021 9.01C344.501 12.4567 338.626 17.0783 334.396 22.875C330.166 28.6717 328.051 35.1733 328.051 42.38C328.051 51.4667 331.106 58.7517 337.216 64.235C343.326 69.7183 353.901 74.0267 368.941 77.16L395.966 82.8C411.32 85.9333 422.208 90.32 428.631 95.96C435.211 101.6 438.501 109.198 438.501 118.755C438.501 127.058 436.073 134.343 431.216 140.61C426.516 146.877 419.936 151.733 411.476 155.18C403.173 158.627 393.46 160.35 382.336 160.35C371.526 160.35 361.656 158.862 352.726 155.885C343.953 152.908 336.668 148.365 330.871 142.255C325.075 136.145 321.315 128.39 319.591 118.99L323.116 117.11C324.526 126.197 327.973 133.717 333.456 139.67C338.94 145.623 345.911 150.01 354.371 152.83C362.831 155.65 372.153 157.06 382.336 157.06C392.05 157.06 400.823 155.65 408.656 152.83C416.646 149.853 422.991 145.545 427.691 139.905C432.391 134.108 434.741 127.058 434.741 118.755C434.741 110.452 431.608 103.715 425.341 98.545C419.231 93.375 408.891 89.3017 394.321 86.325L367.296 80.685C356.956 78.4917 348.653 75.75 342.386 72.46C336.12 69.0133 331.498 64.8617 328.521 60.005C325.701 55.1483 324.291 49.2733 324.291 42.38C324.291 35.0167 326.485 28.2017 330.871 21.935C335.258 15.5117 341.525 10.3417 349.671 6.42499C357.818 2.50833 367.61 0.549996 379.046 0.549996ZM590.893 2.89999V6.18999H531.438V158H527.678V6.18999H468.223V2.89999H590.893ZM640.23 158V2.89999H742.925V6.18999H643.99V77.16H723.42V80.45H643.99V154.71H746.92V158H640.23ZM938.036 2.89999C963.259 2.89999 982.294 9.24499 995.141 21.935C1007.99 34.625 1014.41 53.3467 1014.41 78.1C1014.41 104.263 1007.99 124.16 995.141 137.79C982.294 151.263 963.259 158 938.036 158H890.331V2.89999H938.036ZM938.036 154.71C961.849 154.71 979.866 148.208 992.086 135.205C1004.46 122.202 1010.65 103.167 1010.65 78.1C1010.65 54.4433 1004.46 36.5833 992.086 24.52C979.866 12.3 961.849 6.18999 938.036 6.18999H894.091V154.71H938.036ZM1074.25 158V2.89999H1176.94V6.18999H1078.01V77.16H1157.44V80.45H1078.01V154.71H1180.94V158H1074.25ZM170.201 277L83.8012 365.5L80.2012 369.4L27.1012 423.7V391.3L138.701 277H170.201ZM39.1012 277V475H15.1012V277H39.1012ZM86.2012 350.2L171.101 475H142.301L66.4012 363.7L86.2012 350.2ZM241.976 475V277H380.876V299.5H265.976V363.4H355.376V385.9H265.976V452.5H385.376V475H241.976ZM487.285 452.5H600.685V475H463.285V277H487.285V452.5ZM696.582 452.5H809.982V475H672.582V277H696.582V452.5ZM881.879 475V277H1020.78V299.5H905.879V363.4H995.279V385.9H905.879V452.5H1025.28V475H881.879ZM1178.19 277C1198.39 277 1214.59 282.2 1226.79 292.6C1238.99 303 1245.09 317.1 1245.09 334.9C1245.09 352.7 1238.89 366.6 1226.49 376.6C1214.29 386.4 1198.09 391.3 1177.89 391.3L1175.79 392.8H1127.19V475H1103.19V277H1178.19ZM1177.89 370.3C1192.09 370.3 1202.59 367.4 1209.39 361.6C1216.39 355.6 1219.89 346.7 1219.89 334.9C1219.89 323.1 1216.39 314.3 1209.39 308.5C1202.59 302.5 1192.09 299.5 1177.89 299.5H1127.19V370.3H1177.89ZM1191.69 375.1L1257.09 475H1228.59L1171.59 388.3L1191.69 375.1ZM165.86 547V589.5C165.86 597.367 163.66 603.433 159.26 607.7C154.86 611.9 148.76 614 140.96 614C133.16 614 127.06 611.9 122.66 607.7C118.26 603.433 116.06 597.367 116.06 589.5V547H117.66V589.5C117.66 596.833 119.726 602.533 123.86 606.6C127.993 610.6 133.693 612.6 140.96 612.6C148.293 612.6 153.993 610.6 158.06 606.6C162.193 602.533 164.26 596.833 164.26 589.5V547H165.86ZM192.666 613V563H194.266V576.3C195.399 572.167 197.833 568.767 201.566 566.1C205.299 563.367 209.799 562 215.066 562C220.266 562 224.466 563.3 227.666 565.9C230.933 568.5 232.866 572.167 233.466 576.9C234.133 574.033 235.433 571.467 237.366 569.2C239.299 566.933 241.733 565.133 244.666 563.8C247.599 562.467 250.866 561.8 254.466 561.8C258.333 561.8 261.633 562.533 264.366 564C267.166 565.4 269.299 567.433 270.766 570.1C272.299 572.767 273.066 576.033 273.066 579.9V612.8H271.466V580.1C271.466 574.767 269.899 570.633 266.766 567.7C263.699 564.7 259.499 563.2 254.166 563.2C250.299 563.2 246.799 564.1 243.666 565.9C240.599 567.7 238.166 570.1 236.366 573.1C234.566 576.033 233.666 579.233 233.666 582.7V613H232.066V580.3C232.066 574.967 230.499 570.833 227.366 567.9C224.299 564.9 220.099 563.4 214.766 563.4C210.899 563.4 207.399 564.3 204.266 566.1C201.199 567.9 198.766 570.3 196.966 573.3C195.166 576.233 194.266 579.433 194.266 582.9V613H192.666ZM331.643 579.4C331.643 574.467 330.277 570.567 327.543 567.7C324.81 564.833 320.877 563.4 315.743 563.4C311.543 563.4 307.877 564.333 304.743 566.2C301.677 568 299.377 571 297.843 575.2L296.543 574.2C298.077 570.067 300.477 567 303.743 565C307.077 563 311.077 562 315.743 562C319.477 562 322.643 562.7 325.243 564.1C327.843 565.433 329.81 567.4 331.143 570C332.543 572.6 333.243 575.733 333.243 579.4V605.2C333.243 610 335.21 612.4 339.143 612.4C340.61 612.4 341.743 612.133 342.543 611.6L342.443 613C341.51 613.533 340.31 613.8 338.843 613.8C337.843 613.8 336.777 613.567 335.643 613.1C334.51 612.633 333.543 611.767 332.743 610.5C332.01 609.167 331.643 607.2 331.643 604.6V600L332.343 599.4C331.877 602.667 330.577 605.4 328.443 607.6C326.377 609.733 323.843 611.333 320.843 612.4C317.91 613.467 314.91 614 311.843 614C308.51 614 305.643 613.533 303.243 612.6C300.843 611.6 299.01 610.2 297.743 608.4C296.477 606.6 295.843 604.4 295.843 601.8C295.843 598.067 297.077 595.133 299.543 593C302.077 590.867 305.643 589.367 310.243 588.5L331.943 584.3V585.7L311.343 589.7C306.677 590.567 303.177 592 300.843 594C298.577 595.933 297.443 598.467 297.443 601.6C297.443 605.133 298.677 607.867 301.143 609.8C303.677 611.667 307.31 612.6 312.043 612.6C314.043 612.6 316.143 612.3 318.343 611.7C320.61 611.1 322.743 610.167 324.743 608.9C326.81 607.567 328.477 605.9 329.743 603.9C331.01 601.833 331.643 599.367 331.643 596.5V579.4ZM410.639 539.5C412.572 539.5 414.139 539.8 415.339 540.4C416.539 540.933 417.539 541.667 418.339 542.6L417.639 543.8C416.772 542.733 415.772 542 414.639 541.6C413.572 541.133 412.239 540.9 410.639 540.9C406.972 540.9 404.105 542.133 402.039 544.6C399.972 547 398.939 550.367 398.939 554.7V563V563.9V613H397.339V554.7C397.339 552.3 397.639 550.167 398.239 548.3C398.839 546.433 399.705 544.867 400.839 543.6C402.039 542.267 403.439 541.267 405.039 540.6C406.705 539.867 408.572 539.5 410.639 539.5ZM417.539 563V564.4H387.339V563H417.539ZM453.54 614C449.14 614 445.174 612.967 441.64 610.9C438.174 608.833 435.407 605.867 433.34 602C431.34 598.067 430.34 593.4 430.34 588C430.34 582.533 431.34 577.867 433.34 574C435.34 570.133 438.007 567.167 441.34 565.1C444.74 563.033 448.54 562 452.74 562C457.14 562 460.907 563 464.04 565C467.174 567 469.574 569.867 471.24 573.6C472.974 577.267 473.84 581.667 473.84 586.8C473.84 586.867 473.84 586.967 473.84 587.1C473.84 587.233 473.84 587.367 473.84 587.5H431.14V586H473.14L472.44 586.6C472.374 579.733 470.64 574.167 467.24 569.9C463.907 565.567 459.074 563.4 452.74 563.4C448.874 563.4 445.34 564.4 442.14 566.4C439.007 568.333 436.507 571.133 434.64 574.8C432.84 578.467 431.94 582.867 431.94 588C431.94 593.133 432.874 597.533 434.74 601.2C436.607 604.867 439.174 607.7 442.44 609.7C445.707 611.633 449.407 612.6 453.54 612.6C457.607 612.6 461.307 611.6 464.64 609.6C467.974 607.6 470.474 604.867 472.14 601.4L473.44 602.1C472.307 604.567 470.74 606.7 468.74 608.5C466.74 610.233 464.44 611.6 461.84 612.6C459.24 613.533 456.474 614 453.54 614ZM497.158 613V563H498.758V576C499.892 572.067 501.892 568.767 504.758 566.1C507.625 563.367 511.092 562 515.158 562C516.958 562 518.425 562.233 519.558 562.7C520.692 563.1 521.592 563.667 522.258 564.4L521.358 565.6C520.692 564.933 519.925 564.4 519.058 564C518.192 563.6 516.825 563.4 514.958 563.4C511.892 563.4 509.125 564.4 506.658 566.4C504.192 568.333 502.258 570.867 500.858 574C499.458 577.133 498.758 580.433 498.758 583.9V613H497.158ZM541.436 613V563H543.036V576C544.169 572.067 546.169 568.767 549.036 566.1C551.902 563.367 555.369 562 559.436 562C561.236 562 562.702 562.233 563.836 562.7C564.969 563.1 565.869 563.667 566.536 564.4L565.636 565.6C564.969 564.933 564.202 564.4 563.336 564C562.469 563.6 561.102 563.4 559.236 563.4C556.169 563.4 553.402 564.4 550.936 566.4C548.469 568.333 546.536 570.867 545.136 574C543.736 577.133 543.036 580.433 543.036 583.9V613H541.436ZM616.741 579.4C616.741 574.467 615.374 570.567 612.641 567.7C609.908 564.833 605.974 563.4 600.841 563.4C596.641 563.4 592.974 564.333 589.841 566.2C586.774 568 584.474 571 582.941 575.2L581.641 574.2C583.174 570.067 585.574 567 588.841 565C592.174 563 596.174 562 600.841 562C604.574 562 607.741 562.7 610.341 564.1C612.941 565.433 614.908 567.4 616.241 570C617.641 572.6 618.341 575.733 618.341 579.4V605.2C618.341 610 620.308 612.4 624.241 612.4C625.708 612.4 626.841 612.133 627.641 611.6L627.541 613C626.608 613.533 625.408 613.8 623.941 613.8C622.941 613.8 621.874 613.567 620.741 613.1C619.608 612.633 618.641 611.767 617.841 610.5C617.108 609.167 616.741 607.2 616.741 604.6V600L617.441 599.4C616.974 602.667 615.674 605.4 613.541 607.6C611.474 609.733 608.941 611.333 605.941 612.4C603.008 613.467 600.008 614 596.941 614C593.608 614 590.741 613.533 588.341 612.6C585.941 611.6 584.108 610.2 582.841 608.4C581.574 606.6 580.941 604.4 580.941 601.8C580.941 598.067 582.174 595.133 584.641 593C587.174 590.867 590.741 589.367 595.341 588.5L617.041 584.3V585.7L596.441 589.7C591.774 590.567 588.274 592 585.941 594C583.674 595.933 582.541 598.467 582.541 601.6C582.541 605.133 583.774 607.867 586.241 609.8C588.774 611.667 592.408 612.6 597.141 612.6C599.141 612.6 601.241 612.3 603.441 611.7C605.708 611.1 607.841 610.167 609.841 608.9C611.908 607.567 613.574 605.9 614.841 603.9C616.108 601.833 616.741 599.367 616.741 596.5V579.4ZM646.201 613V563H647.801V576.3C648.935 572.167 651.368 568.767 655.101 566.1C658.835 563.367 663.335 562 668.601 562C673.801 562 678.001 563.3 681.201 565.9C684.468 568.5 686.401 572.167 687.001 576.9C687.668 574.033 688.968 571.467 690.901 569.2C692.835 566.933 695.268 565.133 698.201 563.8C701.135 562.467 704.401 561.8 708.001 561.8C711.868 561.8 715.168 562.533 717.901 564C720.701 565.4 722.835 567.433 724.301 570.1C725.835 572.767 726.601 576.033 726.601 579.9V612.8H725.001V580.1C725.001 574.767 723.435 570.633 720.301 567.7C717.235 564.7 713.035 563.2 707.701 563.2C703.835 563.2 700.335 564.1 697.201 565.9C694.135 567.7 691.701 570.1 689.901 573.1C688.101 576.033 687.201 579.233 687.201 582.7V613H685.601V580.3C685.601 574.967 684.035 570.833 680.901 567.9C677.835 564.9 673.635 563.4 668.301 563.4C664.435 563.4 660.935 564.3 657.801 566.1C654.735 567.9 652.301 570.3 650.501 573.3C648.701 576.233 647.801 579.433 647.801 582.9V613H646.201ZM772.779 614C768.379 614 764.412 612.967 760.879 610.9C757.412 608.833 754.645 605.867 752.579 602C750.579 598.067 749.579 593.4 749.579 588C749.579 582.533 750.579 577.867 752.579 574C754.579 570.133 757.245 567.167 760.579 565.1C763.979 563.033 767.779 562 771.979 562C776.379 562 780.145 563 783.279 565C786.412 567 788.812 569.867 790.479 573.6C792.212 577.267 793.079 581.667 793.079 586.8C793.079 586.867 793.079 586.967 793.079 587.1C793.079 587.233 793.079 587.367 793.079 587.5H750.379V586H792.379L791.679 586.6C791.612 579.733 789.879 574.167 786.479 569.9C783.145 565.567 778.312 563.4 771.979 563.4C768.112 563.4 764.579 564.4 761.379 566.4C758.245 568.333 755.745 571.133 753.879 574.8C752.079 578.467 751.179 582.867 751.179 588C751.179 593.133 752.112 597.533 753.979 601.2C755.845 604.867 758.412 607.7 761.679 609.7C764.945 611.633 768.645 612.6 772.779 612.6C776.845 612.6 780.545 611.6 783.879 609.6C787.212 607.6 789.712 604.867 791.379 601.4L792.679 602.1C791.545 604.567 789.979 606.7 787.979 608.5C785.979 610.233 783.679 611.6 781.079 612.6C778.479 613.533 775.712 614 772.779 614ZM816.396 613V563H817.996V577L817.896 576.7C818.63 573.9 819.963 571.4 821.896 569.2C823.83 566.933 826.23 565.167 829.096 563.9C831.963 562.633 835.196 562 838.796 562C842.663 562 845.963 562.733 848.696 564.2C851.496 565.6 853.63 567.633 855.096 570.3C856.63 572.967 857.396 576.233 857.396 580.1V613H855.796V580.3C855.796 574.967 854.23 570.833 851.096 567.9C848.03 564.9 843.83 563.4 838.496 563.4C834.63 563.4 831.13 564.3 827.996 566.1C824.93 567.9 822.496 570.3 820.696 573.3C818.896 576.233 817.996 579.433 817.996 582.9V613H816.396ZM886.065 549.5V600.4C886.065 604.4 886.899 607.433 888.565 609.5C890.232 611.567 892.865 612.6 896.465 612.6C898.199 612.6 899.799 612.3 901.265 611.7C902.732 611.1 904.065 610.167 905.265 608.9L906.065 610.2C905.065 611.267 903.699 612.167 901.965 612.9C900.299 613.633 898.465 614 896.465 614C893.799 614 891.565 613.5 889.765 612.5C887.965 611.433 886.632 609.9 885.765 607.9C884.899 605.833 884.465 603.333 884.465 600.4V550L886.065 549.5ZM905.365 563V564.4H874.465V563H905.365ZM956.975 579.4C956.975 574.467 955.609 570.567 952.875 567.7C950.142 564.833 946.209 563.4 941.075 563.4C936.875 563.4 933.209 564.333 930.075 566.2C927.009 568 924.709 571 923.175 575.2L921.875 574.2C923.409 570.067 925.809 567 929.075 565C932.409 563 936.409 562 941.075 562C944.809 562 947.975 562.7 950.575 564.1C953.175 565.433 955.142 567.4 956.475 570C957.875 572.6 958.575 575.733 958.575 579.4V605.2C958.575 610 960.542 612.4 964.475 612.4C965.942 612.4 967.075 612.133 967.875 611.6L967.775 613C966.842 613.533 965.642 613.8 964.175 613.8C963.175 613.8 962.109 613.567 960.975 613.1C959.842 612.633 958.875 611.767 958.075 610.5C957.342 609.167 956.975 607.2 956.975 604.6V600L957.675 599.4C957.209 602.667 955.909 605.4 953.775 607.6C951.709 609.733 949.175 611.333 946.175 612.4C943.242 613.467 940.242 614 937.175 614C933.842 614 930.975 613.533 928.575 612.6C926.175 611.6 924.342 610.2 923.075 608.4C921.809 606.6 921.175 604.4 921.175 601.8C921.175 598.067 922.409 595.133 924.875 593C927.409 590.867 930.975 589.367 935.575 588.5L957.275 584.3V585.7L936.675 589.7C932.009 590.567 928.509 592 926.175 594C923.909 595.933 922.775 598.467 922.775 601.6C922.775 605.133 924.009 607.867 926.475 609.8C929.009 611.667 932.642 612.6 937.375 612.6C939.375 612.6 941.475 612.3 943.675 611.7C945.942 611.1 948.075 610.167 950.075 608.9C952.142 607.567 953.809 605.9 955.075 603.9C956.342 601.833 956.975 599.367 956.975 596.5V579.4ZM1041.33 614C1036.79 614 1032.79 612.967 1029.33 610.9C1025.86 608.833 1023.16 605.867 1021.23 602C1019.36 598.067 1018.43 593.4 1018.43 588C1018.43 582.533 1019.36 577.867 1021.23 574C1023.16 570.133 1025.86 567.167 1029.33 565.1C1032.79 563.033 1036.79 562 1041.33 562C1046.46 562 1050.83 563.433 1054.43 566.3C1058.09 569.167 1060.56 573.233 1061.83 578.5L1061.73 578.7V540H1063.33V613H1061.73V597.1L1061.83 597.3C1061.09 600.833 1059.76 603.867 1057.83 606.4C1055.89 608.867 1053.53 610.767 1050.73 612.1C1047.93 613.367 1044.79 614 1041.33 614ZM1041.63 612.6C1045.49 612.6 1048.93 611.6 1051.93 609.6C1054.99 607.6 1057.39 604.767 1059.13 601.1C1060.86 597.367 1061.73 593 1061.73 588C1061.73 582.933 1060.86 578.567 1059.13 574.9C1057.39 571.233 1055.03 568.4 1052.03 566.4C1049.03 564.4 1045.56 563.4 1041.63 563.4C1035.16 563.4 1029.93 565.567 1025.93 569.9C1021.99 574.233 1020.03 580.267 1020.03 588C1020.03 595.733 1021.99 601.767 1025.93 606.1C1029.93 610.433 1035.16 612.6 1041.63 612.6ZM1110.12 614C1105.72 614 1101.76 612.967 1098.22 610.9C1094.76 608.833 1091.99 605.867 1089.92 602C1087.92 598.067 1086.92 593.4 1086.92 588C1086.92 582.533 1087.92 577.867 1089.92 574C1091.92 570.133 1094.59 567.167 1097.92 565.1C1101.32 563.033 1105.12 562 1109.32 562C1113.72 562 1117.49 563 1120.62 565C1123.76 567 1126.16 569.867 1127.82 573.6C1129.56 577.267 1130.42 581.667 1130.42 586.8C1130.42 586.867 1130.42 586.967 1130.42 587.1C1130.42 587.233 1130.42 587.367 1130.42 587.5H1087.72V586H1129.72L1129.02 586.6C1128.96 579.733 1127.22 574.167 1123.82 569.9C1120.49 565.567 1115.66 563.4 1109.32 563.4C1105.46 563.4 1101.92 564.4 1098.72 566.4C1095.59 568.333 1093.09 571.133 1091.22 574.8C1089.42 578.467 1088.52 582.867 1088.52 588C1088.52 593.133 1089.46 597.533 1091.32 601.2C1093.19 604.867 1095.76 607.7 1099.02 609.7C1102.29 611.633 1105.99 612.6 1110.12 612.6C1114.19 612.6 1117.89 611.6 1121.22 609.6C1124.56 607.6 1127.06 604.867 1128.72 601.4L1130.02 602.1C1128.89 604.567 1127.32 606.7 1125.32 608.5C1123.32 610.233 1121.02 611.6 1118.42 612.6C1115.82 613.533 1113.06 614 1110.12 614ZM89.9023 723V652H91.5023V667.9L91.4023 667.7C92.2023 664.167 93.569 661.167 95.5023 658.7C97.5023 656.167 99.9357 654.267 102.802 653C105.669 651.667 108.802 651 112.202 651C116.802 651 120.769 652.033 124.102 654.1C127.502 656.167 130.136 659.133 132.002 663C133.869 666.867 134.802 671.533 134.802 677C134.802 682.4 133.869 687.067 132.002 691C130.136 694.867 127.502 697.833 124.102 699.9C120.769 701.967 116.802 703 112.202 703C107.136 703 102.702 701.567 98.9023 698.7C95.169 695.833 92.669 691.767 91.4023 686.5L91.5023 686.3V723H89.9023ZM111.902 701.6C118.369 701.6 123.536 699.433 127.402 695.1C131.269 690.767 133.202 684.733 133.202 677C133.202 669.267 131.269 663.233 127.402 658.9C123.536 654.567 118.369 652.4 111.902 652.4C108.036 652.4 104.569 653.4 101.502 655.4C98.4357 657.4 96.0023 660.233 94.2023 663.9C92.4023 667.567 91.5023 671.933 91.5023 677C91.5023 682 92.369 686.367 94.1023 690.1C95.9023 693.767 98.3357 696.6 101.402 698.6C104.536 700.6 108.036 701.6 111.902 701.6ZM158.398 702V652H159.998V665C161.132 661.067 163.132 657.767 165.998 655.1C168.865 652.367 172.332 651 176.398 651C178.198 651 179.665 651.233 180.798 651.7C181.932 652.1 182.832 652.667 183.498 653.4L182.598 654.6C181.932 653.933 181.165 653.4 180.298 653C179.432 652.6 178.065 652.4 176.198 652.4C173.132 652.4 170.365 653.4 167.898 655.4C165.432 657.333 163.498 659.867 162.098 663C160.698 666.133 159.998 669.433 159.998 672.9V702H158.398ZM219.551 651C224.151 651 228.184 652.033 231.651 654.1C235.184 656.167 237.917 659.167 239.851 663.1C241.851 666.967 242.851 671.6 242.851 677C242.851 682.4 241.851 687.067 239.851 691C237.917 694.867 235.184 697.833 231.651 699.9C228.184 701.967 224.151 703 219.551 703C214.951 703 210.884 701.967 207.351 699.9C203.884 697.833 201.151 694.867 199.151 691C197.151 687.067 196.151 682.4 196.151 677C196.151 671.6 197.151 666.967 199.151 663.1C201.151 659.167 203.884 656.167 207.351 654.1C210.884 652.033 214.951 651 219.551 651ZM219.551 652.4C215.284 652.4 211.517 653.4 208.251 655.4C204.984 657.333 202.417 660.133 200.551 663.8C198.684 667.467 197.751 671.867 197.751 677C197.751 682.067 198.684 686.467 200.551 690.2C202.417 693.867 204.984 696.7 208.251 698.7C211.517 700.633 215.284 701.6 219.551 701.6C223.817 701.6 227.584 700.633 230.851 698.7C234.117 696.7 236.651 693.867 238.451 690.2C240.317 686.467 241.251 682.067 241.251 677C241.251 671.867 240.317 667.467 238.451 663.8C236.651 660.133 234.117 657.333 230.851 655.4C227.584 653.4 223.817 652.4 219.551 652.4ZM267.284 642.2C266.618 642.2 266.084 642 265.684 641.6C265.284 641.2 265.084 640.667 265.084 640C265.084 639.333 265.284 638.8 265.684 638.4C266.084 638 266.618 637.8 267.284 637.8C267.951 637.8 268.484 638 268.884 638.4C269.284 638.8 269.484 639.333 269.484 640C269.484 640.667 269.284 641.2 268.884 641.6C268.484 642 267.951 642.2 267.284 642.2ZM268.084 652V708.4C268.084 711.467 267.518 714.133 266.384 716.4C265.318 718.667 263.784 720.4 261.784 721.6C259.851 722.867 257.551 723.5 254.884 723.5C253.484 723.5 252.151 723.3 250.884 722.9C249.618 722.5 248.584 721.967 247.784 721.3L248.284 719.9C249.084 720.633 250.084 721.167 251.284 721.5C252.484 721.9 253.684 722.1 254.884 722.1C258.418 722.1 261.218 720.833 263.284 718.3C265.418 715.833 266.484 712.533 266.484 708.4V652H268.084ZM314.839 703C310.439 703 306.472 701.967 302.939 699.9C299.472 697.833 296.706 694.867 294.639 691C292.639 687.067 291.639 682.4 291.639 677C291.639 671.533 292.639 666.867 294.639 663C296.639 659.133 299.306 656.167 302.639 654.1C306.039 652.033 309.839 651 314.039 651C318.439 651 322.206 652 325.339 654C328.472 656 330.872 658.867 332.539 662.6C334.272 666.267 335.139 670.667 335.139 675.8C335.139 675.867 335.139 675.967 335.139 676.1C335.139 676.233 335.139 676.367 335.139 676.5H292.439V675H334.439L333.739 675.6C333.672 668.733 331.939 663.167 328.539 658.9C325.206 654.567 320.372 652.4 314.039 652.4C310.172 652.4 306.639 653.4 303.439 655.4C300.306 657.333 297.806 660.133 295.939 663.8C294.139 667.467 293.239 671.867 293.239 677C293.239 682.133 294.172 686.533 296.039 690.2C297.906 693.867 300.472 696.7 303.739 698.7C307.006 700.633 310.706 701.6 314.839 701.6C318.906 701.6 322.606 700.6 325.939 698.6C329.272 696.6 331.772 693.867 333.439 690.4L334.739 691.1C333.606 693.567 332.039 695.7 330.039 697.5C328.039 699.233 325.739 700.6 323.139 701.6C320.539 702.533 317.772 703 314.839 703ZM362.071 638.5V689.4C362.071 693.4 362.904 696.433 364.571 698.5C366.238 700.567 368.871 701.6 372.471 701.6C374.204 701.6 375.804 701.3 377.271 700.7C378.738 700.1 380.071 699.167 381.271 697.9L382.071 699.2C381.071 700.267 379.704 701.167 377.971 701.9C376.304 702.633 374.471 703 372.471 703C369.804 703 367.571 702.5 365.771 701.5C363.971 700.433 362.638 698.9 361.771 696.9C360.904 694.833 360.471 692.333 360.471 689.4V639L362.071 638.5ZM381.371 652V653.4H350.471V652H381.371ZM432.981 668.4C432.981 663.467 431.615 659.567 428.881 656.7C426.148 653.833 422.215 652.4 417.081 652.4C412.881 652.4 409.215 653.333 406.081 655.2C403.015 657 400.715 660 399.181 664.2L397.881 663.2C399.415 659.067 401.815 656 405.081 654C408.415 652 412.415 651 417.081 651C420.815 651 423.981 651.7 426.581 653.1C429.181 654.433 431.148 656.4 432.481 659C433.881 661.6 434.581 664.733 434.581 668.4V694.2C434.581 699 436.548 701.4 440.481 701.4C441.948 701.4 443.081 701.133 443.881 700.6L443.781 702C442.848 702.533 441.648 702.8 440.181 702.8C439.181 702.8 438.115 702.567 436.981 702.1C435.848 701.633 434.881 700.767 434.081 699.5C433.348 698.167 432.981 696.2 432.981 693.6V689L433.681 688.4C433.215 691.667 431.915 694.4 429.781 696.6C427.715 698.733 425.181 700.333 422.181 701.4C419.248 702.467 416.248 703 413.181 703C409.848 703 406.981 702.533 404.581 701.6C402.181 700.6 400.348 699.2 399.081 697.4C397.815 695.6 397.181 693.4 397.181 690.8C397.181 687.067 398.415 684.133 400.881 682C403.415 679.867 406.981 678.367 411.581 677.5L433.281 673.3V674.7L412.681 678.7C408.015 679.567 404.515 681 402.181 683C399.915 684.933 398.781 687.467 398.781 690.6C398.781 694.133 400.015 696.867 402.481 698.8C405.015 700.667 408.648 701.6 413.381 701.6C415.381 701.6 417.481 701.3 419.681 700.7C421.948 700.1 424.081 699.167 426.081 697.9C428.148 696.567 429.815 694.9 431.081 692.9C432.348 690.833 432.981 688.367 432.981 685.5V668.4ZM462.441 702V652H464.041V665C465.175 661.067 467.175 657.767 470.041 655.1C472.908 652.367 476.375 651 480.441 651C482.241 651 483.708 651.233 484.841 651.7C485.975 652.1 486.875 652.667 487.541 653.4L486.641 654.6C485.975 653.933 485.208 653.4 484.341 653C483.475 652.6 482.108 652.4 480.241 652.4C477.175 652.4 474.408 653.4 471.941 655.4C469.475 657.333 467.541 659.867 466.141 663C464.741 666.133 464.041 669.433 464.041 672.9V702H462.441ZM556.449 628.5C558.383 628.5 559.949 628.8 561.149 629.4C562.349 629.933 563.349 630.667 564.149 631.6L563.449 632.8C562.583 631.733 561.583 631 560.449 630.6C559.383 630.133 558.049 629.9 556.449 629.9C552.783 629.9 549.916 631.133 547.849 633.6C545.783 636 544.749 639.367 544.749 643.7V652V652.9V702H543.149V643.7C543.149 641.3 543.449 639.167 544.049 637.3C544.649 635.433 545.516 633.867 546.649 632.6C547.849 631.267 549.249 630.267 550.849 629.6C552.516 628.867 554.383 628.5 556.449 628.5ZM563.349 652V653.4H533.149V652H563.349ZM599.351 703C594.951 703 590.984 701.967 587.451 699.9C583.984 697.833 581.217 694.867 579.151 691C577.151 687.067 576.151 682.4 576.151 677C576.151 671.533 577.151 666.867 579.151 663C581.151 659.133 583.817 656.167 587.151 654.1C590.551 652.033 594.351 651 598.551 651C602.951 651 606.717 652 609.851 654C612.984 656 615.384 658.867 617.051 662.6C618.784 666.267 619.651 670.667 619.651 675.8C619.651 675.867 619.651 675.967 619.651 676.1C619.651 676.233 619.651 676.367 619.651 676.5H576.951V675H618.951L618.251 675.6C618.184 668.733 616.451 663.167 613.051 658.9C609.717 654.567 604.884 652.4 598.551 652.4C594.684 652.4 591.151 653.4 587.951 655.4C584.817 657.333 582.317 660.133 580.451 663.8C578.651 667.467 577.751 671.867 577.751 677C577.751 682.133 578.684 686.533 580.551 690.2C582.417 693.867 584.984 696.7 588.251 698.7C591.517 700.633 595.217 701.6 599.351 701.6C603.417 701.6 607.117 700.6 610.451 698.6C613.784 696.6 616.284 693.867 617.951 690.4L619.251 691.1C618.117 693.567 616.551 695.7 614.551 697.5C612.551 699.233 610.251 700.6 607.651 701.6C605.051 702.533 602.284 703 599.351 703ZM642.969 702V652H644.569V665C645.702 661.067 647.702 657.767 650.569 655.1C653.435 652.367 656.902 651 660.969 651C662.769 651 664.235 651.233 665.369 651.7C666.502 652.1 667.402 652.667 668.069 653.4L667.169 654.6C666.502 653.933 665.735 653.4 664.869 653C664.002 652.6 662.635 652.4 660.769 652.4C657.702 652.4 654.935 653.4 652.469 655.4C650.002 657.333 648.069 659.867 646.669 663C645.269 666.133 644.569 669.433 644.569 672.9V702H642.969ZM687.246 702V652H688.846V665C689.979 661.067 691.979 657.767 694.846 655.1C697.713 652.367 701.179 651 705.246 651C707.046 651 708.513 651.233 709.646 651.7C710.779 652.1 711.679 652.667 712.346 653.4L711.446 654.6C710.779 653.933 710.013 653.4 709.146 653C708.279 652.6 706.913 652.4 705.046 652.4C701.979 652.4 699.213 653.4 696.746 655.4C694.279 657.333 692.346 659.867 690.946 663C689.546 666.133 688.846 669.433 688.846 672.9V702H687.246ZM762.552 668.4C762.552 663.467 761.185 659.567 758.452 656.7C755.718 653.833 751.785 652.4 746.652 652.4C742.452 652.4 738.785 653.333 735.652 655.2C732.585 657 730.285 660 728.752 664.2L727.452 663.2C728.985 659.067 731.385 656 734.652 654C737.985 652 741.985 651 746.652 651C750.385 651 753.552 651.7 756.152 653.1C758.752 654.433 760.718 656.4 762.052 659C763.452 661.6 764.152 664.733 764.152 668.4V694.2C764.152 699 766.118 701.4 770.052 701.4C771.518 701.4 772.652 701.133 773.452 700.6L773.352 702C772.418 702.533 771.218 702.8 769.752 702.8C768.752 702.8 767.685 702.567 766.552 702.1C765.418 701.633 764.452 700.767 763.652 699.5C762.918 698.167 762.552 696.2 762.552 693.6V689L763.252 688.4C762.785 691.667 761.485 694.4 759.352 696.6C757.285 698.733 754.752 700.333 751.752 701.4C748.818 702.467 745.818 703 742.752 703C739.418 703 736.552 702.533 734.152 701.6C731.752 700.6 729.918 699.2 728.652 697.4C727.385 695.6 726.752 693.4 726.752 690.8C726.752 687.067 727.985 684.133 730.452 682C732.985 679.867 736.552 678.367 741.152 677.5L762.852 673.3V674.7L742.252 678.7C737.585 679.567 734.085 681 731.752 683C729.485 684.933 728.352 687.467 728.352 690.6C728.352 694.133 729.585 696.867 732.052 698.8C734.585 700.667 738.218 701.6 742.952 701.6C744.952 701.6 747.052 701.3 749.252 700.7C751.518 700.1 753.652 699.167 755.652 697.9C757.718 696.567 759.385 694.9 760.652 692.9C761.918 690.833 762.552 688.367 762.552 685.5V668.4ZM792.012 702V652H793.612V665.3C794.745 661.167 797.178 657.767 800.912 655.1C804.645 652.367 809.145 651 814.412 651C819.612 651 823.812 652.3 827.012 654.9C830.278 657.5 832.212 661.167 832.812 665.9C833.478 663.033 834.778 660.467 836.712 658.2C838.645 655.933 841.078 654.133 844.012 652.8C846.945 651.467 850.212 650.8 853.812 650.8C857.678 650.8 860.978 651.533 863.712 653C866.512 654.4 868.645 656.433 870.112 659.1C871.645 661.767 872.412 665.033 872.412 668.9V701.8H870.812V669.1C870.812 663.767 869.245 659.633 866.112 656.7C863.045 653.7 858.845 652.2 853.512 652.2C849.645 652.2 846.145 653.1 843.012 654.9C839.945 656.7 837.512 659.1 835.712 662.1C833.912 665.033 833.012 668.233 833.012 671.7V702H831.412V669.3C831.412 663.967 829.845 659.833 826.712 656.9C823.645 653.9 819.445 652.4 814.112 652.4C810.245 652.4 806.745 653.3 803.612 655.1C800.545 656.9 798.112 659.3 796.312 662.3C794.512 665.233 793.612 668.433 793.612 671.9V702H792.012ZM918.589 703C914.189 703 910.222 701.967 906.689 699.9C903.222 697.833 900.456 694.867 898.389 691C896.389 687.067 895.389 682.4 895.389 677C895.389 671.533 896.389 666.867 898.389 663C900.389 659.133 903.056 656.167 906.389 654.1C909.789 652.033 913.589 651 917.789 651C922.189 651 925.956 652 929.089 654C932.222 656 934.622 658.867 936.289 662.6C938.022 666.267 938.889 670.667 938.889 675.8C938.889 675.867 938.889 675.967 938.889 676.1C938.889 676.233 938.889 676.367 938.889 676.5H896.189V675H938.189L937.489 675.6C937.422 668.733 935.689 663.167 932.289 658.9C928.956 654.567 924.122 652.4 917.789 652.4C913.922 652.4 910.389 653.4 907.189 655.4C904.056 657.333 901.556 660.133 899.689 663.8C897.889 667.467 896.989 671.867 896.989 677C896.989 682.133 897.922 686.533 899.789 690.2C901.656 693.867 904.222 696.7 907.489 698.7C910.756 700.633 914.456 701.6 918.589 701.6C922.656 701.6 926.356 700.6 929.689 698.6C933.022 696.6 935.522 693.867 937.189 690.4L938.489 691.1C937.356 693.567 935.789 695.7 933.789 697.5C931.789 699.233 929.489 700.6 926.889 701.6C924.289 702.533 921.522 703 918.589 703ZM962.207 702V652H963.807V666L963.707 665.7C964.44 662.9 965.774 660.4 967.707 658.2C969.64 655.933 972.04 654.167 974.907 652.9C977.774 651.633 981.007 651 984.607 651C988.474 651 991.774 651.733 994.507 653.2C997.307 654.6 999.44 656.633 1000.91 659.3C1002.44 661.967 1003.21 665.233 1003.21 669.1V702H1001.61V669.3C1001.61 663.967 1000.04 659.833 996.907 656.9C993.84 653.9 989.64 652.4 984.307 652.4C980.44 652.4 976.94 653.3 973.807 655.1C970.74 656.9 968.307 659.3 966.507 662.3C964.707 665.233 963.807 668.433 963.807 671.9V702H962.207ZM1031.88 638.5V689.4C1031.88 693.4 1032.71 696.433 1034.38 698.5C1036.04 700.567 1038.68 701.6 1042.28 701.6C1044.01 701.6 1045.61 701.3 1047.08 700.7C1048.54 700.1 1049.88 699.167 1051.08 697.9L1051.88 699.2C1050.88 700.267 1049.51 701.167 1047.78 701.9C1046.11 702.633 1044.28 703 1042.28 703C1039.61 703 1037.38 702.5 1035.58 701.5C1033.78 700.433 1032.44 698.9 1031.58 696.9C1030.71 694.833 1030.28 692.333 1030.28 689.4V639L1031.88 638.5ZM1051.18 652V653.4H1020.28V652H1051.18ZM1102.79 668.4C1102.79 663.467 1101.42 659.567 1098.69 656.7C1095.95 653.833 1092.02 652.4 1086.89 652.4C1082.69 652.4 1079.02 653.333 1075.89 655.2C1072.82 657 1070.52 660 1068.99 664.2L1067.69 663.2C1069.22 659.067 1071.62 656 1074.89 654C1078.22 652 1082.22 651 1086.89 651C1090.62 651 1093.79 651.7 1096.39 653.1C1098.99 654.433 1100.95 656.4 1102.29 659C1103.69 661.6 1104.39 664.733 1104.39 668.4V694.2C1104.39 699 1106.35 701.4 1110.29 701.4C1111.75 701.4 1112.89 701.133 1113.69 700.6L1113.59 702C1112.65 702.533 1111.45 702.8 1109.99 702.8C1108.99 702.8 1107.92 702.567 1106.79 702.1C1105.65 701.633 1104.69 700.767 1103.89 699.5C1103.15 698.167 1102.79 696.2 1102.79 693.6V689L1103.49 688.4C1103.02 691.667 1101.72 694.4 1099.59 696.6C1097.52 698.733 1094.99 700.333 1091.99 701.4C1089.05 702.467 1086.05 703 1082.99 703C1079.65 703 1076.79 702.533 1074.39 701.6C1071.99 700.6 1070.15 699.2 1068.89 697.4C1067.62 695.6 1066.99 693.4 1066.99 690.8C1066.99 687.067 1068.22 684.133 1070.69 682C1073.22 679.867 1076.79 678.367 1081.39 677.5L1103.09 673.3V674.7L1082.49 678.7C1077.82 679.567 1074.32 681 1071.99 683C1069.72 684.933 1068.59 687.467 1068.59 690.6C1068.59 694.133 1069.82 696.867 1072.29 698.8C1074.82 700.667 1078.45 701.6 1083.19 701.6C1085.19 701.6 1087.29 701.3 1089.49 700.7C1091.75 700.1 1093.89 699.167 1095.89 697.9C1097.95 696.567 1099.62 694.9 1100.89 692.9C1102.15 690.833 1102.79 688.367 1102.79 685.5V668.4ZM1147.75 703C1142.55 703 1138.08 702 1134.35 700C1130.68 697.933 1128.38 694.9 1127.45 690.9L1128.95 690.2C1129.81 693.933 1131.95 696.767 1135.35 698.7C1138.75 700.633 1142.98 701.6 1148.05 701.6C1153.38 701.6 1157.58 700.533 1160.65 698.4C1163.78 696.2 1165.35 693.267 1165.35 689.6C1165.35 687.067 1164.51 684.933 1162.85 683.2C1161.25 681.467 1158.25 680.133 1153.85 679.2L1142.45 676.7C1137.85 675.7 1134.55 674.167 1132.55 672.1C1130.61 669.967 1129.65 667.467 1129.65 664.6C1129.65 662 1130.45 659.7 1132.05 657.7C1133.65 655.633 1135.85 654 1138.65 652.8C1141.45 651.6 1144.61 651 1148.15 651C1153.28 651 1157.41 652 1160.55 654C1163.68 656 1165.71 659.167 1166.65 663.5L1165.25 664.3C1164.38 660.167 1162.48 657.167 1159.55 655.3C1156.68 653.367 1152.88 652.4 1148.15 652.4C1144.88 652.4 1141.98 652.933 1139.45 654C1136.91 655 1134.91 656.4 1133.45 658.2C1131.98 659.933 1131.25 661.933 1131.25 664.2C1131.25 666.733 1132.08 668.967 1133.75 670.9C1135.48 672.767 1138.41 674.167 1142.55 675.1L1154.15 677.7C1158.88 678.767 1162.18 680.267 1164.05 682.2C1165.98 684.133 1166.95 686.6 1166.95 689.6C1166.95 692.333 1166.15 694.733 1164.55 696.8C1163.01 698.8 1160.81 700.333 1157.95 701.4C1155.08 702.467 1151.68 703 1147.75 703Z" fill="#202072"/>
</svg>
