<svg width="438" height="211" viewBox="0 0 438 211" fill="none" xmlns="http://www.w3.org/2000/svg">
<path d="M41.642 30.4545V28.7273H78.9943V30.4545H61.1818V84H59.4545V30.4545H41.642ZM92.2457 84V28.7273H121.717V30.4545H93.973V55.5H120.098V57.2273H93.973V82.2727H122.473V84H92.2457ZM166.208 42.5455C165.938 38.767 164.49 35.6634 161.863 33.2344C159.254 30.8054 155.808 29.5909 151.526 29.5909C148.719 29.5909 146.21 30.1307 143.996 31.2102C141.783 32.2898 140.038 33.7741 138.761 35.6633C137.483 37.5346 136.844 39.6847 136.844 42.1136C136.844 43.517 137.078 44.8125 137.546 46C138.014 47.1875 138.725 48.276 139.678 49.2656C140.65 50.2372 141.864 51.1188 143.322 51.9105C144.797 52.6842 146.524 53.3769 148.504 53.9886L154.765 55.9318C157.158 56.6695 159.227 57.4972 160.972 58.4148C162.718 59.3324 164.157 60.367 165.29 61.5185C166.442 62.652 167.297 63.9205 167.854 65.3239C168.412 66.7093 168.691 68.2566 168.691 69.9659C168.691 72.8447 167.953 75.4086 166.478 77.6577C165.003 79.9067 162.942 81.67 160.298 82.9474C157.653 84.2249 154.585 84.8636 151.094 84.8636C147.73 84.8636 144.788 84.2789 142.269 83.1094C139.75 81.9219 137.753 80.2936 136.278 78.2244C134.82 76.1373 134.002 73.7443 133.822 71.0455H135.549C135.729 73.4205 136.476 75.5166 137.789 77.3338C139.103 79.151 140.884 80.5724 143.133 81.598C145.4 82.6236 148.054 83.1364 151.094 83.1364C154.261 83.1364 157.032 82.5876 159.407 81.4901C161.8 80.3745 163.653 78.8272 164.967 76.848C166.298 74.8688 166.964 72.5748 166.964 69.9659C166.964 67.9867 166.532 66.2505 165.668 64.7571C164.805 63.2457 163.446 61.9143 161.593 60.7628C159.74 59.6113 157.32 58.5767 154.333 57.6591L148.072 55.7159C143.736 54.3485 140.488 52.5402 138.329 50.2912C136.188 48.0421 135.117 45.3163 135.117 42.1136C135.117 39.3968 135.828 36.9678 137.249 34.8267C138.671 32.6676 140.614 30.9673 143.079 29.7258C145.562 28.4844 148.378 27.8636 151.526 27.8636C154.693 27.8636 157.473 28.4934 159.866 29.7528C162.259 31.0123 164.157 32.7486 165.56 34.9616C166.964 37.1747 167.755 39.7027 167.935 42.5455H166.208ZM179.169 30.4545V28.7273H216.522V30.4545H198.709V84H196.982V30.4545H179.169ZM229.773 84V28.7273H259.245V30.4545H231.5V55.5H257.625V57.2273H231.5V82.2727H260V84H229.773ZM309.997 84H295.531V28.7273H311.4C316.492 28.7273 320.846 29.8248 324.463 32.0199C328.097 34.197 330.877 37.3277 332.802 41.4119C334.745 45.4962 335.708 50.4081 335.69 56.1477C335.672 62.0312 334.646 67.0511 332.613 71.2074C330.598 75.3456 327.674 78.5123 323.842 80.7074C320.028 82.9025 315.413 84 309.997 84ZM297.258 82.2727H309.997C315.107 82.2727 319.452 81.2382 323.032 79.169C326.613 77.0819 329.33 74.0862 331.183 70.1818C333.054 66.2775 333.981 61.5994 333.963 56.1477C333.945 50.768 333.045 46.1619 331.264 42.3295C329.501 38.4972 326.946 35.5644 323.599 33.5312C320.252 31.4801 316.186 30.4545 311.4 30.4545H297.258V82.2727ZM349.859 84V28.7273H379.331V30.4545H351.586V55.5H377.711V57.2273H351.586V82.2727H380.086V84H349.859ZM43.0682 184V114.182H57.8295V144.966H58.75L83.875 114.182H101.568L75.6591 145.443L101.875 184H84.2159L65.0909 155.295L57.8295 164.159V184H43.0682ZM109.256 184V114.182H156.301V126.352H124.017V142.989H153.881V155.159H124.017V171.83H156.438V184H109.256ZM168.037 184V114.182H182.798V171.83H212.73V184H168.037ZM222.506 184V114.182H237.267V171.83H267.199V184H222.506ZM276.974 184V114.182H324.02V126.352H291.736V142.989H321.599V155.159H291.736V171.83H324.156V184H276.974ZM335.756 184V114.182H363.301C368.574 114.182 373.074 115.125 376.801 117.011C380.551 118.875 383.403 121.523 385.358 124.955C387.335 128.364 388.324 132.375 388.324 136.989C388.324 141.625 387.324 145.614 385.324 148.955C383.324 152.273 380.426 154.818 376.631 156.591C372.858 158.364 368.29 159.25 362.926 159.25H344.483V147.386H360.54C363.358 147.386 365.699 147 367.562 146.227C369.426 145.455 370.813 144.295 371.722 142.75C372.653 141.205 373.119 139.284 373.119 136.989C373.119 134.67 372.653 132.716 371.722 131.125C370.813 129.534 369.415 128.33 367.528 127.511C365.665 126.67 363.313 126.25 360.472 126.25H350.517V184H335.756ZM373.46 152.227L390.812 184H374.517L357.54 152.227H373.46Z" fill="#202072"/>
</svg>
