<svg width="826" height="313" viewBox="0 0 826 313" fill="none" xmlns="http://www.w3.org/2000/svg">
<g clip-path="url(#clip0_1_41)">
<rect width="826" height="313" fill="white"/>
<path d="M37.2727 118.568V110.455H75.5V118.568H61.25V157H51.5227V118.568H37.2727ZM95.8755 157V110.455H127.239V118.568H105.716V129.659H125.625V137.773H105.716V148.886H127.33V157H95.8755ZM174.393 123.841C174.211 122.008 173.431 120.583 172.052 119.568C170.673 118.553 168.802 118.045 166.438 118.045C164.832 118.045 163.476 118.273 162.37 118.727C161.264 119.167 160.416 119.78 159.825 120.568C159.249 121.356 158.961 122.25 158.961 123.25C158.931 124.083 159.105 124.811 159.484 125.432C159.878 126.053 160.416 126.591 161.098 127.045C161.779 127.485 162.567 127.871 163.461 128.205C164.355 128.523 165.31 128.795 166.325 129.023L170.507 130.023C172.537 130.477 174.401 131.083 176.098 131.841C177.794 132.598 179.264 133.53 180.507 134.636C181.749 135.742 182.711 137.045 183.393 138.545C184.09 140.045 184.446 141.765 184.461 143.705C184.446 146.553 183.719 149.023 182.279 151.114C180.855 153.189 178.794 154.803 176.098 155.955C173.416 157.091 170.181 157.659 166.393 157.659C162.635 157.659 159.363 157.083 156.575 155.932C153.802 154.78 151.635 153.076 150.075 150.818C148.529 148.545 147.719 145.735 147.643 142.386H157.166C157.272 143.947 157.719 145.25 158.507 146.295C159.31 147.326 160.378 148.106 161.711 148.636C163.06 149.152 164.582 149.409 166.279 149.409C167.946 149.409 169.393 149.167 170.62 148.682C171.863 148.197 172.825 147.523 173.507 146.659C174.188 145.795 174.529 144.803 174.529 143.682C174.529 142.636 174.219 141.758 173.598 141.045C172.991 140.333 172.098 139.727 170.916 139.227C169.749 138.727 168.317 138.273 166.62 137.864L161.552 136.591C157.628 135.636 154.529 134.144 152.257 132.114C149.984 130.083 148.855 127.348 148.87 123.909C148.855 121.091 149.605 118.629 151.12 116.523C152.651 114.417 154.749 112.773 157.416 111.591C160.082 110.409 163.113 109.818 166.507 109.818C169.961 109.818 172.976 110.409 175.552 111.591C178.143 112.773 180.158 114.417 181.598 116.523C183.037 118.629 183.779 121.068 183.825 123.841H174.393ZM203.388 118.568V110.455H241.615V118.568H227.365V157H217.638V118.568H203.388ZM261.99 157V110.455H293.354V118.568H271.831V129.659H291.74V137.773H271.831V148.886H293.445V157H261.99ZM360.65 157H344.15V110.455H360.787C365.469 110.455 369.499 111.386 372.878 113.25C376.257 115.098 378.855 117.758 380.673 121.227C382.507 124.697 383.423 128.848 383.423 133.682C383.423 138.53 382.507 142.697 380.673 146.182C378.855 149.667 376.241 152.341 372.832 154.205C369.438 156.068 365.378 157 360.65 157ZM353.991 148.568H360.241C363.15 148.568 365.597 148.053 367.582 147.023C369.582 145.977 371.082 144.364 372.082 142.182C373.097 139.985 373.605 137.152 373.605 133.682C373.605 130.242 373.097 127.432 372.082 125.25C371.082 123.068 369.59 121.462 367.605 120.432C365.62 119.402 363.173 118.886 360.264 118.886H353.991V148.568ZM404.793 157V110.455H436.157V118.568H414.634V129.659H434.543V137.773H414.634V148.886H436.247V157H404.793ZM486.953 157V110.455H496.794V130.977H497.408L514.158 110.455H525.953L508.68 131.295L526.158 157H514.385L501.635 137.864L496.794 143.773V157H486.953ZM545.158 157V110.455H576.522V118.568H554.999V129.659H574.908V137.773H554.999V148.886H576.612V157H545.158ZM598.425 157V110.455H608.266V148.886H628.221V157H598.425ZM648.818 157V110.455H658.659V148.886H678.613V157H648.818ZM699.21 157V110.455H730.574V118.568H709.051V129.659H728.96V137.773H709.051V148.886H730.665V157H699.21ZM752.478 157V110.455H770.842C774.357 110.455 777.357 111.083 779.842 112.341C782.342 113.583 784.243 115.348 785.546 117.636C786.864 119.909 787.523 122.583 787.523 125.659C787.523 128.75 786.857 131.409 785.523 133.636C784.19 135.848 782.258 137.545 779.728 138.727C777.213 139.909 774.167 140.5 770.592 140.5H758.296V132.591H769.001C770.879 132.591 772.44 132.333 773.682 131.818C774.925 131.303 775.849 130.53 776.455 129.5C777.076 128.47 777.387 127.189 777.387 125.659C777.387 124.114 777.076 122.811 776.455 121.75C775.849 120.689 774.917 119.886 773.66 119.341C772.417 118.78 770.849 118.5 768.955 118.5H762.319V157H752.478ZM777.614 135.818L789.182 157H778.319L767.001 135.818H777.614ZM60.7727 187.455H61.7273V207.679C61.7273 209.747 61.245 211.597 60.2805 213.227C59.326 214.848 58.0234 216.131 56.3729 217.075C54.7223 218.01 52.848 218.477 50.75 218.477C48.6719 218.477 46.8026 218.005 45.142 217.06C43.4815 216.116 42.169 214.833 41.2045 213.212C40.2401 211.582 39.7628 209.737 39.7727 207.679V187.455H40.7273V207.679C40.7273 209.568 41.1598 211.254 42.0249 212.735C42.8999 214.217 44.093 215.385 45.6044 216.24C47.1158 217.095 48.831 217.523 50.75 217.523C52.669 217.523 54.3842 217.095 55.8956 216.24C57.407 215.385 58.5952 214.217 59.4602 212.735C60.3352 211.254 60.7727 209.568 60.7727 207.679V187.455ZM70.1368 218V195.091H71.0914V198.491H71.2107C71.6283 197.378 72.374 196.483 73.4479 195.807C74.5317 195.131 75.8343 194.793 77.3556 194.793C79.0857 194.793 80.4628 195.22 81.487 196.075C82.5211 196.93 83.232 198.074 83.6198 199.506H83.7391C84.1169 198.074 84.8826 196.93 86.036 196.075C87.1894 195.22 88.6311 194.793 90.3612 194.793C92.6581 194.793 94.3534 195.523 95.4472 196.985C96.5509 198.437 97.1027 200.311 97.1027 202.608V218H96.1482V202.608C96.1482 200.58 95.6908 198.929 94.776 197.656C93.8613 196.384 92.3897 195.747 90.3612 195.747C88.3328 195.747 86.7817 196.393 85.7078 197.686C84.634 198.969 84.097 200.609 84.097 202.608V218H83.1425V202.608C83.1425 200.58 82.6851 198.929 81.7703 197.656C80.8556 196.384 79.384 195.747 77.3556 195.747C76.0033 195.747 74.8598 196.04 73.9252 196.627C73.0005 197.214 72.2945 198.024 71.8073 199.058C71.33 200.092 71.0914 201.276 71.0914 202.608V218H70.1368ZM110.512 218.477C109.26 218.477 108.101 218.219 107.037 217.702C105.983 217.185 105.133 216.429 104.487 215.435C103.851 214.44 103.532 213.227 103.532 211.795C103.532 211.02 103.657 210.294 103.905 209.618C104.154 208.932 104.591 208.31 105.218 207.754C105.844 207.197 106.719 206.719 107.843 206.322C108.976 205.924 110.423 205.621 112.183 205.412C113.237 205.293 114.231 205.153 115.166 204.994C116.101 204.835 116.861 204.597 117.448 204.278C118.034 203.96 118.328 203.503 118.328 202.906V201.534C118.328 199.774 117.736 198.362 116.553 197.298C115.37 196.224 113.794 195.688 111.825 195.688C110.214 195.688 108.807 196.045 107.604 196.761C106.401 197.467 105.561 198.462 105.083 199.744L104.189 199.386C104.547 198.432 105.098 197.607 105.844 196.911C106.59 196.214 107.475 195.678 108.499 195.3C109.523 194.922 110.632 194.733 111.825 194.733C112.988 194.733 114.027 194.907 114.942 195.255C115.867 195.593 116.652 196.07 117.299 196.687C117.945 197.293 118.437 198.009 118.775 198.835C119.113 199.66 119.282 200.56 119.282 201.534V218H118.328V213.347H118.208C117.731 214.381 117.11 215.286 116.344 216.061C115.588 216.827 114.713 217.423 113.719 217.851C112.735 218.268 111.666 218.477 110.512 218.477ZM110.512 217.523C111.964 217.523 113.282 217.135 114.465 216.359C115.648 215.574 116.588 214.485 117.284 213.093C117.98 211.691 118.328 210.065 118.328 208.216V204.756C118.049 204.964 117.711 205.148 117.314 205.308C116.926 205.467 116.483 205.611 115.986 205.74C115.499 205.859 114.967 205.964 114.39 206.053C113.814 206.143 113.197 206.227 112.541 206.307C110.493 206.545 108.882 206.908 107.708 207.396C106.535 207.883 105.705 208.494 105.218 209.23C104.73 209.966 104.487 210.821 104.487 211.795C104.487 213.526 105.064 214.913 106.217 215.957C107.38 217.001 108.812 217.523 110.512 217.523ZM146.355 195.091V196.045H137.287V195.091H146.355ZM140.449 218V191.332C140.449 190.259 140.688 189.329 141.165 188.543C141.652 187.758 142.294 187.151 143.089 186.724C143.894 186.296 144.764 186.082 145.699 186.082C146.057 186.082 146.38 186.112 146.669 186.172C146.957 186.232 147.24 186.311 147.519 186.411L147.22 187.305C146.972 187.226 146.728 187.161 146.49 187.112C146.251 187.062 145.987 187.037 145.699 187.037C144.556 187.037 143.551 187.42 142.686 188.185C141.831 188.951 141.404 190 141.404 191.332L141.374 218H140.449ZM159.612 218.477C157.614 218.477 155.864 217.955 154.362 216.911C152.871 215.867 151.712 214.45 150.887 212.661C150.062 210.871 149.649 208.852 149.649 206.605C149.649 204.358 150.062 202.339 150.887 200.55C151.722 198.76 152.856 197.343 154.288 196.299C155.719 195.255 157.335 194.733 159.135 194.733C160.467 194.733 161.7 195.016 162.834 195.583C163.977 196.15 164.972 196.935 165.817 197.94C166.662 198.944 167.318 200.102 167.785 201.415C168.263 202.717 168.501 204.109 168.501 205.591V206.545H150.126V205.591H167.547C167.547 203.751 167.169 202.086 166.413 200.594C165.658 199.093 164.643 197.9 163.371 197.015C162.098 196.13 160.686 195.688 159.135 195.688C157.564 195.688 156.142 196.155 154.869 197.089C153.597 198.024 152.577 199.297 151.812 200.908C151.046 202.518 150.643 204.338 150.604 206.366V206.486C150.604 208.484 150.952 210.324 151.648 212.004C152.354 213.675 153.378 215.012 154.72 216.016C156.062 217.021 157.693 217.523 159.612 217.523C161.024 217.523 162.207 217.274 163.162 216.777C164.126 216.28 164.897 215.708 165.474 215.062C166.06 214.415 166.493 213.864 166.771 213.406L167.547 213.943C167.209 214.52 166.702 215.161 166.026 215.867C165.349 216.573 164.484 217.185 163.43 217.702C162.376 218.219 161.104 218.477 159.612 218.477ZM174.842 218V195.091H175.796V198.73H175.915C176.452 197.537 177.332 196.582 178.555 195.866C179.788 195.151 181.195 194.793 182.776 194.793C182.895 194.793 182.975 194.793 183.015 194.793C183.055 194.793 183.134 194.793 183.253 194.793V195.747C183.134 195.747 183.055 195.747 183.015 195.747C182.975 195.747 182.895 195.747 182.776 195.747C181.424 195.747 180.221 196.04 179.167 196.627C178.123 197.214 177.297 198.024 176.691 199.058C176.094 200.092 175.796 201.276 175.796 202.608V218H174.842ZM188.08 218V195.091H189.034V198.73H189.154C189.691 197.537 190.57 196.582 191.793 195.866C193.026 195.151 194.433 194.793 196.014 194.793C196.134 194.793 196.213 194.793 196.253 194.793C196.293 194.793 196.372 194.793 196.492 194.793V195.747C196.372 195.747 196.293 195.747 196.253 195.747C196.213 195.747 196.134 195.747 196.014 195.747C194.662 195.747 193.459 196.04 192.405 196.627C191.361 197.214 190.536 198.024 189.929 199.058C189.333 200.092 189.034 201.276 189.034 202.608V218H188.08ZM207.045 218.477C205.792 218.477 204.634 218.219 203.57 217.702C202.516 217.185 201.666 216.429 201.02 215.435C200.383 214.44 200.065 213.227 200.065 211.795C200.065 211.02 200.189 210.294 200.438 209.618C200.687 208.932 201.124 208.31 201.75 207.754C202.377 207.197 203.252 206.719 204.375 206.322C205.509 205.924 206.956 205.621 208.716 205.412C209.77 205.293 210.764 205.153 211.699 204.994C212.633 204.835 213.394 204.597 213.981 204.278C214.567 203.96 214.861 203.503 214.861 202.906V201.534C214.861 199.774 214.269 198.362 213.086 197.298C211.902 196.224 210.326 195.688 208.358 195.688C206.747 195.688 205.34 196.045 204.137 196.761C202.934 197.467 202.093 198.462 201.616 199.744L200.721 199.386C201.079 198.432 201.631 197.607 202.377 196.911C203.123 196.214 204.008 195.678 205.032 195.3C206.056 194.922 207.165 194.733 208.358 194.733C209.521 194.733 210.56 194.907 211.475 195.255C212.4 195.593 213.185 196.07 213.831 196.687C214.478 197.293 214.97 198.009 215.308 198.835C215.646 199.66 215.815 200.56 215.815 201.534V218H214.861V213.347H214.741C214.264 214.381 213.642 215.286 212.877 216.061C212.121 216.827 211.246 217.423 210.252 217.851C209.267 218.268 208.199 218.477 207.045 218.477ZM207.045 217.523C208.497 217.523 209.814 217.135 210.998 216.359C212.181 215.574 213.12 214.485 213.816 213.093C214.513 211.691 214.861 210.065 214.861 208.216V204.756C214.582 204.964 214.244 205.148 213.846 205.308C213.459 205.467 213.016 205.611 212.519 205.74C212.032 205.859 211.5 205.964 210.923 206.053C210.346 206.143 209.73 206.227 209.074 206.307C207.025 206.545 205.415 206.908 204.241 207.396C203.068 207.883 202.238 208.494 201.75 209.23C201.263 209.966 201.02 210.821 201.02 211.795C201.02 213.526 201.596 214.913 202.75 215.957C203.913 217.001 205.345 217.523 207.045 217.523ZM223.621 218V195.091H224.575V198.491H224.694C225.112 197.378 225.858 196.483 226.932 195.807C228.015 195.131 229.318 194.793 230.839 194.793C232.569 194.793 233.947 195.22 234.971 196.075C236.005 196.93 236.716 198.074 237.104 199.506H237.223C237.601 198.074 238.366 196.93 239.52 196.075C240.673 195.22 242.115 194.793 243.845 194.793C246.142 194.793 247.837 195.523 248.931 196.985C250.035 198.437 250.586 200.311 250.586 202.608V218H249.632V202.608C249.632 200.58 249.175 198.929 248.26 197.656C247.345 196.384 245.873 195.747 243.845 195.747C241.817 195.747 240.265 196.393 239.192 197.686C238.118 198.969 237.581 200.609 237.581 202.608V218H236.626V202.608C236.626 200.58 236.169 198.929 235.254 197.656C234.339 196.384 232.868 195.747 230.839 195.747C229.487 195.747 228.344 196.04 227.409 196.627C226.484 197.214 225.778 198.024 225.291 199.058C224.814 200.092 224.575 201.276 224.575 202.608V218H223.621ZM266.86 218.477C264.861 218.477 263.111 217.955 261.61 216.911C260.118 215.867 258.96 214.45 258.135 212.661C257.309 210.871 256.897 208.852 256.897 206.605C256.897 204.358 257.309 202.339 258.135 200.55C258.97 198.76 260.103 197.343 261.535 196.299C262.967 195.255 264.583 194.733 266.383 194.733C267.715 194.733 268.948 195.016 270.081 195.583C271.225 196.15 272.219 196.935 273.064 197.94C273.91 198.944 274.566 200.102 275.033 201.415C275.51 202.717 275.749 204.109 275.749 205.591V206.545H257.374V205.591H274.794C274.794 203.751 274.417 202.086 273.661 200.594C272.905 199.093 271.891 197.9 270.618 197.015C269.346 196.13 267.934 195.688 266.383 195.688C264.812 195.688 263.39 196.155 262.117 197.089C260.844 198.024 259.825 199.297 259.059 200.908C258.294 202.518 257.891 204.338 257.851 206.366V206.486C257.851 208.484 258.199 210.324 258.895 212.004C259.601 213.675 260.625 215.012 261.968 216.016C263.31 217.021 264.941 217.523 266.86 217.523C268.272 217.523 269.455 217.274 270.41 216.777C271.374 216.28 272.145 215.708 272.721 215.062C273.308 214.415 273.741 213.864 274.019 213.406L274.794 213.943C274.456 214.52 273.949 215.161 273.273 215.867C272.597 216.573 271.732 217.185 270.678 217.702C269.624 218.219 268.351 218.477 266.86 218.477ZM283.044 202.608V218H282.089V195.091H283.044V198.73H283.163C283.7 197.537 284.58 196.582 285.803 195.866C287.036 195.151 288.443 194.793 290.024 194.793C291.555 194.793 292.907 195.126 294.081 195.792C295.254 196.458 296.174 197.378 296.84 198.551C297.506 199.724 297.839 201.077 297.839 202.608V218H296.885V202.608C296.885 200.58 296.248 198.929 294.976 197.656C293.703 196.384 292.052 195.747 290.024 195.747C288.672 195.747 287.468 196.04 286.414 196.627C285.37 197.214 284.545 198.024 283.939 199.058C283.342 200.092 283.044 201.276 283.044 202.608ZM312.699 195.091V196.045H303.631V195.091H312.699ZM306.972 189.602H307.927V213.168C307.927 214.062 308.125 214.833 308.523 215.479C308.921 216.116 309.448 216.608 310.104 216.956C310.76 217.294 311.466 217.463 312.222 217.463C312.51 217.463 312.774 217.438 313.013 217.388C313.261 217.339 313.515 217.264 313.773 217.165L314.071 218.06C313.773 218.169 313.48 218.254 313.192 218.313C312.903 218.383 312.58 218.418 312.222 218.418C311.287 218.418 310.417 218.204 309.612 217.776C308.817 217.349 308.175 216.742 307.688 215.957C307.211 215.171 306.972 214.241 306.972 213.168V189.602ZM325.449 218.477C324.196 218.477 323.038 218.219 321.974 217.702C320.92 217.185 320.07 216.429 319.424 215.435C318.787 214.44 318.469 213.227 318.469 211.795C318.469 211.02 318.593 210.294 318.842 209.618C319.09 208.932 319.528 208.31 320.154 207.754C320.781 207.197 321.656 206.719 322.779 206.322C323.913 205.924 325.36 205.621 327.12 205.412C328.174 205.293 329.168 205.153 330.103 204.994C331.037 204.835 331.798 204.597 332.384 204.278C332.971 203.96 333.264 203.503 333.264 202.906V201.534C333.264 199.774 332.673 198.362 331.49 197.298C330.306 196.224 328.73 195.688 326.762 195.688C325.151 195.688 323.744 196.045 322.541 196.761C321.338 197.467 320.497 198.462 320.02 199.744L319.125 199.386C319.483 198.432 320.035 197.607 320.781 196.911C321.527 196.214 322.411 195.678 323.436 195.3C324.46 194.922 325.568 194.733 326.762 194.733C327.925 194.733 328.964 194.907 329.879 195.255C330.804 195.593 331.589 196.07 332.235 196.687C332.882 197.293 333.374 198.009 333.712 198.835C334.05 199.66 334.219 200.56 334.219 201.534V218H333.264V213.347H333.145C332.668 214.381 332.046 215.286 331.281 216.061C330.525 216.827 329.65 217.423 328.656 217.851C327.671 218.268 326.603 218.477 325.449 218.477ZM325.449 217.523C326.901 217.523 328.218 217.135 329.402 216.359C330.585 215.574 331.524 214.485 332.22 213.093C332.916 211.691 333.264 210.065 333.264 208.216V204.756C332.986 204.964 332.648 205.148 332.25 205.308C331.862 205.467 331.42 205.611 330.923 205.74C330.436 205.859 329.904 205.964 329.327 206.053C328.75 206.143 328.134 206.227 327.478 206.307C325.429 206.545 323.818 206.908 322.645 207.396C321.472 207.883 320.642 208.494 320.154 209.23C319.667 209.966 319.424 210.821 319.424 211.795C319.424 213.526 320 214.913 321.154 215.957C322.317 217.001 323.749 217.523 325.449 217.523ZM360.874 218.477C359.065 218.477 357.499 217.96 356.176 216.926C354.854 215.882 353.835 214.465 353.119 212.675C352.403 210.886 352.045 208.862 352.045 206.605C352.045 204.358 352.408 202.339 353.134 200.55C353.859 198.76 354.884 197.343 356.206 196.299C357.528 195.255 359.085 194.733 360.874 194.733C362.087 194.733 363.206 194.987 364.23 195.494C365.254 195.991 366.144 196.707 366.9 197.641C367.656 198.566 368.232 199.665 368.63 200.938H368.749V187.455H369.704V218H368.749V212.273H368.63C368.212 213.536 367.631 214.634 366.885 215.569C366.139 216.494 365.254 217.21 364.23 217.717C363.216 218.224 362.097 218.477 360.874 218.477ZM360.874 217.523C362.495 217.523 363.892 217.045 365.065 216.091C366.249 215.126 367.158 213.824 367.795 212.183C368.431 210.533 368.749 208.673 368.749 206.605C368.749 204.537 368.426 202.683 367.78 201.042C367.144 199.391 366.234 198.089 365.051 197.134C363.877 196.17 362.485 195.688 360.874 195.688C359.264 195.688 357.867 196.17 356.683 197.134C355.51 198.089 354.6 199.391 353.954 201.042C353.318 202.683 352.999 204.537 352.999 206.605C352.999 208.673 353.318 210.533 353.954 212.183C354.59 213.824 355.495 215.126 356.668 216.091C357.852 217.045 359.254 217.523 360.874 217.523ZM386.689 218.477C384.691 218.477 382.941 217.955 381.439 216.911C379.948 215.867 378.79 214.45 377.964 212.661C377.139 210.871 376.726 208.852 376.726 206.605C376.726 204.358 377.139 202.339 377.964 200.55C378.8 198.76 379.933 197.343 381.365 196.299C382.797 195.255 384.412 194.733 386.212 194.733C387.545 194.733 388.778 195.016 389.911 195.583C391.055 196.15 392.049 196.935 392.894 197.94C393.739 198.944 394.395 200.102 394.863 201.415C395.34 202.717 395.579 204.109 395.579 205.591V206.545H377.204V205.591H394.624C394.624 203.751 394.246 202.086 393.491 200.594C392.735 199.093 391.721 197.9 390.448 197.015C389.175 196.13 387.763 195.688 386.212 195.688C384.641 195.688 383.219 196.155 381.947 197.089C380.674 198.024 379.655 199.297 378.889 200.908C378.123 202.518 377.721 204.338 377.681 206.366V206.486C377.681 208.484 378.029 210.324 378.725 212.004C379.431 213.675 380.455 215.012 381.797 216.016C383.14 217.021 384.77 217.523 386.689 217.523C388.101 217.523 389.285 217.274 390.239 216.777C391.204 216.28 391.974 215.708 392.551 215.062C393.138 214.415 393.57 213.864 393.849 213.406L394.624 213.943C394.286 214.52 393.779 215.161 393.103 215.867C392.427 216.573 391.562 217.185 390.508 217.702C389.454 218.219 388.181 218.477 386.689 218.477ZM413.311 226.591V195.091H414.266V200.938H414.385C414.803 199.665 415.384 198.566 416.13 197.641C416.876 196.717 417.756 196.001 418.77 195.494C419.794 194.987 420.918 194.733 422.141 194.733C423.95 194.733 425.512 195.255 426.824 196.299C428.147 197.333 429.166 198.745 429.882 200.535C430.607 202.325 430.97 204.348 430.97 206.605C430.97 208.852 430.607 210.871 429.882 212.661C429.156 214.45 428.132 215.867 426.809 216.911C425.487 217.955 423.931 218.477 422.141 218.477C420.928 218.477 419.809 218.229 418.785 217.732C417.761 217.224 416.871 216.509 416.115 215.584C415.36 214.649 414.783 213.545 414.385 212.273H414.266V226.591H413.311ZM414.266 206.605C414.266 208.673 414.584 210.533 415.22 212.183C415.867 213.824 416.776 215.126 417.95 216.091C419.133 217.045 420.53 217.523 422.141 217.523C423.752 217.523 425.144 217.045 426.317 216.091C427.5 215.126 428.41 213.824 429.046 212.183C429.693 210.533 430.016 208.673 430.016 206.605C430.016 204.537 429.698 202.683 429.061 201.042C428.425 199.391 427.515 198.089 426.332 197.134C425.159 196.17 423.762 195.688 422.141 195.688C420.52 195.688 419.118 196.17 417.935 197.134C416.762 198.089 415.857 199.391 415.22 201.042C414.584 202.683 414.266 204.537 414.266 206.605ZM437.296 218V195.091H438.25V198.73H438.369C438.906 197.537 439.786 196.582 441.009 195.866C442.242 195.151 443.649 194.793 445.23 194.793C445.35 194.793 445.429 194.793 445.469 194.793C445.509 194.793 445.588 194.793 445.707 194.793V195.747C445.588 195.747 445.509 195.747 445.469 195.747C445.429 195.747 445.35 195.747 445.23 195.747C443.878 195.747 442.675 196.04 441.621 196.627C440.577 197.214 439.752 198.024 439.145 199.058C438.548 200.092 438.25 201.276 438.25 202.608V218H437.296ZM457.95 218.477C456.15 218.477 454.535 217.96 453.103 216.926C451.671 215.882 450.538 214.465 449.702 212.675C448.877 210.876 448.464 208.852 448.464 206.605C448.464 204.348 448.877 202.325 449.702 200.535C450.538 198.745 451.671 197.333 453.103 196.299C454.535 195.255 456.15 194.733 457.95 194.733C459.75 194.733 461.361 195.255 462.783 196.299C464.214 197.343 465.348 198.76 466.183 200.55C467.018 202.339 467.436 204.358 467.436 206.605C467.436 208.852 467.018 210.876 466.183 212.675C465.358 214.465 464.229 215.882 462.797 216.926C461.366 217.96 459.75 218.477 457.95 218.477ZM457.95 217.523C459.571 217.523 461.023 217.045 462.305 216.091C463.598 215.136 464.617 213.834 465.363 212.183C466.109 210.533 466.481 208.673 466.481 206.605C466.481 204.537 466.104 202.683 465.348 201.042C464.602 199.391 463.588 198.089 462.305 197.134C461.023 196.17 459.571 195.688 457.95 195.688C456.339 195.688 454.888 196.17 453.595 197.134C452.312 198.089 451.293 199.391 450.538 201.042C449.792 202.683 449.419 204.537 449.419 206.605C449.419 208.673 449.792 210.533 450.538 212.183C451.283 213.834 452.297 215.136 453.58 216.091C454.873 217.045 456.329 217.523 457.95 217.523ZM473.858 195.091H474.813V221.341C474.813 222.415 474.569 223.344 474.082 224.13C473.595 224.915 472.953 225.522 472.158 225.95C471.362 226.377 470.497 226.591 469.563 226.591C469.503 226.591 469.438 226.586 469.369 226.576C469.299 226.576 469.205 226.561 469.085 226.531L469.205 225.636C469.264 225.636 469.324 225.636 469.384 225.636C469.443 225.636 469.503 225.636 469.563 225.636C470.696 225.636 471.695 225.254 472.56 224.488C473.426 223.722 473.858 222.673 473.858 221.341V195.091ZM474.335 190.915C474.077 190.915 473.853 190.82 473.664 190.631C473.475 190.442 473.381 190.219 473.381 189.96C473.381 189.702 473.475 189.478 473.664 189.289C473.853 189.1 474.077 189.006 474.335 189.006C474.594 189.006 474.818 189.1 475.007 189.289C475.195 189.478 475.29 189.702 475.29 189.96C475.29 190.219 475.195 190.442 475.007 190.631C474.818 190.82 474.594 190.915 474.335 190.915ZM491.22 218.477C489.222 218.477 487.472 217.955 485.97 216.911C484.479 215.867 483.32 214.45 482.495 212.661C481.67 210.871 481.257 208.852 481.257 206.605C481.257 204.358 481.67 202.339 482.495 200.55C483.33 198.76 484.464 197.343 485.896 196.299C487.327 195.255 488.943 194.733 490.743 194.733C492.075 194.733 493.308 195.016 494.442 195.583C495.585 196.15 496.58 196.935 497.425 197.94C498.27 198.944 498.926 200.102 499.394 201.415C499.871 202.717 500.109 204.109 500.109 205.591V206.545H481.734V205.591H499.155C499.155 203.751 498.777 202.086 498.021 200.594C497.266 199.093 496.251 197.9 494.979 197.015C493.706 196.13 492.294 195.688 490.743 195.688C489.172 195.688 487.75 196.155 486.477 197.089C485.205 198.024 484.185 199.297 483.42 200.908C482.654 202.518 482.251 204.338 482.212 206.366V206.486C482.212 208.484 482.56 210.324 483.256 212.004C483.962 213.675 484.986 215.012 486.328 216.016C487.671 217.021 489.301 217.523 491.22 217.523C492.632 217.523 493.815 217.274 494.77 216.777C495.734 216.28 496.505 215.708 497.082 215.062C497.668 214.415 498.101 213.864 498.379 213.406L499.155 213.943C498.817 214.52 498.31 215.161 497.634 215.867C496.957 216.573 496.092 217.185 495.038 217.702C493.984 218.219 492.712 218.477 491.22 218.477ZM513.609 195.091V196.045H504.54V195.091H513.609ZM507.881 189.602H508.836V213.168C508.836 214.062 509.035 214.833 509.433 215.479C509.83 216.116 510.357 216.608 511.013 216.956C511.67 217.294 512.376 217.463 513.131 217.463C513.42 217.463 513.683 217.438 513.922 217.388C514.17 217.339 514.424 217.264 514.683 217.165L514.981 218.06C514.683 218.169 514.389 218.254 514.101 218.313C513.812 218.383 513.489 218.418 513.131 218.418C512.197 218.418 511.327 218.204 510.521 217.776C509.726 217.349 509.084 216.742 508.597 215.957C508.12 215.171 507.881 214.241 507.881 213.168V189.602ZM526.358 218.477C525.106 218.477 523.947 218.219 522.883 217.702C521.829 217.185 520.979 216.429 520.333 215.435C519.696 214.44 519.378 213.227 519.378 211.795C519.378 211.02 519.503 210.294 519.751 209.618C520 208.932 520.437 208.31 521.064 207.754C521.69 207.197 522.565 206.719 523.689 206.322C524.822 205.924 526.269 205.621 528.029 205.412C529.083 205.293 530.077 205.153 531.012 204.994C531.946 204.835 532.707 204.597 533.294 204.278C533.88 203.96 534.174 203.503 534.174 202.906V201.534C534.174 199.774 533.582 198.362 532.399 197.298C531.216 196.224 529.64 195.688 527.671 195.688C526.06 195.688 524.653 196.045 523.45 196.761C522.247 197.467 521.407 198.462 520.929 199.744L520.035 199.386C520.392 198.432 520.944 197.607 521.69 196.911C522.436 196.214 523.321 195.678 524.345 195.3C525.369 194.922 526.478 194.733 527.671 194.733C528.834 194.733 529.873 194.907 530.788 195.255C531.713 195.593 532.498 196.07 533.145 196.687C533.791 197.293 534.283 198.009 534.621 198.835C534.959 199.66 535.128 200.56 535.128 201.534V218H534.174V213.347H534.054C533.577 214.381 532.956 215.286 532.19 216.061C531.434 216.827 530.559 217.423 529.565 217.851C528.581 218.268 527.512 218.477 526.358 218.477ZM526.358 217.523C527.81 217.523 529.128 217.135 530.311 216.359C531.494 215.574 532.434 214.485 533.13 213.093C533.826 211.691 534.174 210.065 534.174 208.216V204.756C533.895 204.964 533.557 205.148 533.16 205.308C532.772 205.467 532.329 205.611 531.832 205.74C531.345 205.859 530.813 205.964 530.236 206.053C529.66 206.143 529.043 206.227 528.387 206.307C526.339 206.545 524.728 206.908 523.554 207.396C522.381 207.883 521.551 208.494 521.064 209.23C520.576 209.966 520.333 210.821 520.333 211.795C520.333 213.526 520.91 214.913 522.063 215.957C523.226 217.001 524.658 217.523 526.358 217.523ZM542.934 218V195.091H543.888V198.73H544.008C544.545 197.537 545.425 196.582 546.648 195.866C547.881 195.151 549.287 194.793 550.868 194.793C550.988 194.793 551.067 194.793 551.107 194.793C551.147 194.793 551.226 194.793 551.346 194.793V195.747C551.226 195.747 551.147 195.747 551.107 195.747C551.067 195.747 550.988 195.747 550.868 195.747C549.516 195.747 548.313 196.04 547.259 196.627C546.215 197.214 545.39 198.024 544.783 199.058C544.187 200.092 543.888 201.276 543.888 202.608V218H542.934ZM575.439 195.091V196.045H566.371V195.091H575.439ZM569.533 218V191.332C569.533 190.259 569.772 189.329 570.249 188.543C570.736 187.758 571.378 187.151 572.173 186.724C572.979 186.296 573.849 186.082 574.783 186.082C575.141 186.082 575.464 186.112 575.753 186.172C576.041 186.232 576.324 186.311 576.603 186.411L576.305 187.305C576.056 187.226 575.812 187.161 575.574 187.112C575.335 187.062 575.072 187.037 574.783 187.037C573.64 187.037 572.635 187.42 571.77 188.185C570.915 188.951 570.488 190 570.488 191.332L570.458 218H569.533ZM588.696 218.477C586.698 218.477 584.948 217.955 583.446 216.911C581.955 215.867 580.796 214.45 579.971 212.661C579.146 210.871 578.733 208.852 578.733 206.605C578.733 204.358 579.146 202.339 579.971 200.55C580.806 198.76 581.94 197.343 583.372 196.299C584.804 195.255 586.419 194.733 588.219 194.733C589.551 194.733 590.784 195.016 591.918 195.583C593.061 196.15 594.056 196.935 594.901 197.94C595.746 198.944 596.402 200.102 596.87 201.415C597.347 202.717 597.586 204.109 597.586 205.591V206.545H579.211V205.591H596.631C596.631 203.751 596.253 202.086 595.497 200.594C594.742 199.093 593.728 197.9 592.455 197.015C591.182 196.13 589.77 195.688 588.219 195.688C586.648 195.688 585.226 196.155 583.953 197.089C582.681 198.024 581.662 199.297 580.896 200.908C580.13 202.518 579.728 204.338 579.688 206.366V206.486C579.688 208.484 580.036 210.324 580.732 212.004C581.438 213.675 582.462 215.012 583.804 216.016C585.147 217.021 586.777 217.523 588.696 217.523C590.108 217.523 591.291 217.274 592.246 216.777C593.211 216.28 593.981 215.708 594.558 215.062C595.144 214.415 595.577 213.864 595.855 213.406L596.631 213.943C596.293 214.52 595.786 215.161 595.11 215.867C594.434 216.573 593.568 217.185 592.514 217.702C591.461 218.219 590.188 218.477 588.696 218.477ZM603.926 218V195.091H604.88V198.73H605C605.536 197.537 606.416 196.582 607.639 195.866C608.872 195.151 610.279 194.793 611.86 194.793C611.98 194.793 612.059 194.793 612.099 194.793C612.139 194.793 612.218 194.793 612.338 194.793V195.747C612.218 195.747 612.139 195.747 612.099 195.747C612.059 195.747 611.98 195.747 611.86 195.747C610.508 195.747 609.305 196.04 608.251 196.627C607.207 197.214 606.382 198.024 605.775 199.058C605.178 200.092 604.88 201.276 604.88 202.608V218H603.926ZM617.164 218V195.091H618.118V198.73H618.238C618.775 197.537 619.655 196.582 620.878 195.866C622.111 195.151 623.518 194.793 625.099 194.793C625.218 194.793 625.297 194.793 625.337 194.793C625.377 194.793 625.456 194.793 625.576 194.793V195.747C625.456 195.747 625.377 195.747 625.337 195.747C625.297 195.747 625.218 195.747 625.099 195.747C623.746 195.747 622.543 196.04 621.489 196.627C620.445 197.214 619.62 198.024 619.013 199.058C618.417 200.092 618.118 201.276 618.118 202.608V218H617.164ZM636.129 218.477C634.876 218.477 633.718 218.219 632.654 217.702C631.6 217.185 630.75 216.429 630.104 215.435C629.467 214.44 629.149 213.227 629.149 211.795C629.149 211.02 629.273 210.294 629.522 209.618C629.771 208.932 630.208 208.31 630.835 207.754C631.461 207.197 632.336 206.719 633.46 206.322C634.593 205.924 636.04 205.621 637.8 205.412C638.854 205.293 639.848 205.153 640.783 204.994C641.717 204.835 642.478 204.597 643.065 204.278C643.651 203.96 643.945 203.503 643.945 202.906V201.534C643.945 199.774 643.353 198.362 642.17 197.298C640.987 196.224 639.411 195.688 637.442 195.688C635.831 195.688 634.424 196.045 633.221 196.761C632.018 197.467 631.178 198.462 630.7 199.744L629.805 199.386C630.163 198.432 630.715 197.607 631.461 196.911C632.207 196.214 633.092 195.678 634.116 195.3C635.14 194.922 636.249 194.733 637.442 194.733C638.605 194.733 639.644 194.907 640.559 195.255C641.484 195.593 642.269 196.07 642.916 196.687C643.562 197.293 644.054 198.009 644.392 198.835C644.73 199.66 644.899 200.56 644.899 201.534V218H643.945V213.347H643.825C643.348 214.381 642.727 215.286 641.961 216.061C641.205 216.827 640.33 217.423 639.336 217.851C638.352 218.268 637.283 218.477 636.129 218.477ZM636.129 217.523C637.581 217.523 638.898 217.135 640.082 216.359C641.265 215.574 642.205 214.485 642.901 213.093C643.597 211.691 643.945 210.065 643.945 208.216V204.756C643.666 204.964 643.328 205.148 642.93 205.308C642.543 205.467 642.1 205.611 641.603 205.74C641.116 205.859 640.584 205.964 640.007 206.053C639.43 206.143 638.814 206.227 638.158 206.307C636.109 206.545 634.499 206.908 633.325 207.396C632.152 207.883 631.322 208.494 630.835 209.23C630.347 209.966 630.104 210.821 630.104 211.795C630.104 213.526 630.68 214.913 631.834 215.957C632.997 217.001 634.429 217.523 636.129 217.523ZM652.705 218V195.091H653.659V198.491H653.779C654.196 197.378 654.942 196.483 656.016 195.807C657.1 195.131 658.402 194.793 659.923 194.793C661.654 194.793 663.031 195.22 664.055 196.075C665.089 196.93 665.8 198.074 666.188 199.506H666.307C666.685 198.074 667.45 196.93 668.604 196.075C669.757 195.22 671.199 194.793 672.929 194.793C675.226 194.793 676.921 195.523 678.015 196.985C679.119 198.437 679.671 200.311 679.671 202.608V218H678.716V202.608C678.716 200.58 678.259 198.929 677.344 197.656C676.429 196.384 674.958 195.747 672.929 195.747C670.901 195.747 669.35 196.393 668.276 197.686C667.202 198.969 666.665 200.609 666.665 202.608V218H665.71V202.608C665.71 200.58 665.253 198.929 664.338 197.656C663.423 196.384 661.952 195.747 659.923 195.747C658.571 195.747 657.428 196.04 656.493 196.627C655.568 197.214 654.862 198.024 654.375 199.058C653.898 200.092 653.659 201.276 653.659 202.608V218H652.705ZM695.944 218.477C693.945 218.477 692.195 217.955 690.694 216.911C689.203 215.867 688.044 214.45 687.219 212.661C686.394 210.871 685.981 208.852 685.981 206.605C685.981 204.358 686.394 202.339 687.219 200.55C688.054 198.76 689.188 197.343 690.619 196.299C692.051 195.255 693.667 194.733 695.467 194.733C696.799 194.733 698.032 195.016 699.166 195.583C700.309 196.15 701.303 196.935 702.149 197.94C702.994 198.944 703.65 200.102 704.117 201.415C704.595 202.717 704.833 204.109 704.833 205.591V206.545H686.458V205.591H703.879C703.879 203.751 703.501 202.086 702.745 200.594C701.989 199.093 700.975 197.9 699.703 197.015C698.43 196.13 697.018 195.688 695.467 195.688C693.896 195.688 692.474 196.155 691.201 197.089C689.928 198.024 688.909 199.297 688.144 200.908C687.378 202.518 686.975 204.338 686.935 206.366V206.486C686.935 208.484 687.283 210.324 687.98 212.004C688.685 213.675 689.71 215.012 691.052 216.016C692.394 217.021 694.025 217.523 695.944 217.523C697.356 217.523 698.539 217.274 699.494 216.777C700.458 216.28 701.229 215.708 701.805 215.062C702.392 214.415 702.825 213.864 703.103 213.406L703.879 213.943C703.541 214.52 703.033 215.161 702.357 215.867C701.681 216.573 700.816 217.185 699.762 217.702C698.708 218.219 697.435 218.477 695.944 218.477ZM712.128 202.608V218H711.173V195.091H712.128V198.73H712.247C712.784 197.537 713.664 196.582 714.887 195.866C716.12 195.151 717.527 194.793 719.108 194.793C720.639 194.793 721.991 195.126 723.165 195.792C724.338 196.458 725.258 197.378 725.924 198.551C726.59 199.724 726.923 201.077 726.923 202.608V218H725.969V202.608C725.969 200.58 725.332 198.929 724.06 197.656C722.787 196.384 721.136 195.747 719.108 195.747C717.756 195.747 716.553 196.04 715.499 196.627C714.455 197.214 713.629 198.024 713.023 199.058C712.426 200.092 712.128 201.276 712.128 202.608ZM741.783 195.091V196.045H732.715V195.091H741.783ZM736.056 189.602H737.011V213.168C737.011 214.062 737.21 214.833 737.607 215.479C738.005 216.116 738.532 216.608 739.188 216.956C739.845 217.294 740.551 217.463 741.306 217.463C741.595 217.463 741.858 217.438 742.097 217.388C742.345 217.339 742.599 217.264 742.857 217.165L743.156 218.06C742.857 218.169 742.564 218.254 742.276 218.313C741.987 218.383 741.664 218.418 741.306 218.418C740.372 218.418 739.502 218.204 738.696 217.776C737.901 217.349 737.259 216.742 736.772 215.957C736.295 215.171 736.056 214.241 736.056 213.168V189.602ZM754.533 218.477C753.28 218.477 752.122 218.219 751.058 217.702C750.004 217.185 749.154 216.429 748.508 215.435C747.871 214.44 747.553 213.227 747.553 211.795C747.553 211.02 747.677 210.294 747.926 209.618C748.175 208.932 748.612 208.31 749.238 207.754C749.865 207.197 750.74 206.719 751.863 206.322C752.997 205.924 754.444 205.621 756.204 205.412C757.258 205.293 758.252 205.153 759.187 204.994C760.121 204.835 760.882 204.597 761.469 204.278C762.055 203.96 762.349 203.503 762.349 202.906V201.534C762.349 199.774 761.757 198.362 760.574 197.298C759.39 196.224 757.814 195.688 755.846 195.688C754.235 195.688 752.828 196.045 751.625 196.761C750.422 197.467 749.582 198.462 749.104 199.744L748.209 199.386C748.567 198.432 749.119 197.607 749.865 196.911C750.611 196.214 751.496 195.678 752.52 195.3C753.544 194.922 754.653 194.733 755.846 194.733C757.009 194.733 758.048 194.907 758.963 195.255C759.888 195.593 760.673 196.07 761.319 196.687C761.966 197.293 762.458 198.009 762.796 198.835C763.134 199.66 763.303 200.56 763.303 201.534V218H762.349V213.347H762.229C761.752 214.381 761.131 215.286 760.365 216.061C759.609 216.827 758.734 217.423 757.74 217.851C756.756 218.268 755.687 218.477 754.533 218.477ZM754.533 217.523C755.985 217.523 757.302 217.135 758.486 216.359C759.669 215.574 760.609 214.485 761.305 213.093C762.001 211.691 762.349 210.065 762.349 208.216V204.756C762.07 204.964 761.732 205.148 761.334 205.308C760.947 205.467 760.504 205.611 760.007 205.74C759.52 205.859 758.988 205.964 758.411 206.053C757.834 206.143 757.218 206.227 756.562 206.307C754.513 206.545 752.903 206.908 751.729 207.396C750.556 207.883 749.726 208.494 749.238 209.23C748.751 209.966 748.508 210.821 748.508 211.795C748.508 213.526 749.084 214.913 750.238 215.957C751.401 217.001 752.833 217.523 754.533 217.523ZM784.83 199.923L783.876 200.162C783.567 199.168 783.135 198.342 782.578 197.686C782.031 197.02 781.36 196.523 780.565 196.195C779.769 195.857 778.844 195.688 777.79 195.688C775.961 195.688 774.479 196.155 773.346 197.089C772.212 198.014 771.646 199.237 771.646 200.759C771.646 201.962 772.028 202.971 772.794 203.786C773.57 204.602 774.738 205.203 776.299 205.591L779.879 206.486C781.559 206.903 782.832 207.609 783.697 208.604C784.572 209.598 785.009 210.801 785.009 212.213C785.009 213.456 784.681 214.55 784.025 215.494C783.379 216.439 782.484 217.175 781.34 217.702C780.197 218.219 778.874 218.477 777.373 218.477C775.334 218.477 773.669 217.98 772.376 216.986C771.084 215.991 770.244 214.58 769.856 212.75L770.81 212.511C771.148 214.132 771.869 215.375 772.973 216.24C774.087 217.095 775.553 217.523 777.373 217.523C779.361 217.523 780.972 217.036 782.205 216.061C783.438 215.087 784.055 213.804 784.055 212.213C784.055 211.03 783.687 210.031 782.951 209.215C782.215 208.4 781.111 207.808 779.64 207.44L776.06 206.545C774.3 206.108 772.963 205.392 772.048 204.398C771.143 203.403 770.691 202.19 770.691 200.759C770.691 199.555 770.989 198.506 771.586 197.612C772.192 196.707 773.028 196.001 774.092 195.494C775.165 194.987 776.398 194.733 777.79 194.733C779.56 194.733 781.037 195.17 782.22 196.045C783.403 196.911 784.273 198.203 784.83 199.923Z" fill="#202072"/>
</g>
<defs>
<clipPath id="clip0_1_41">
<rect width="826" height="313" fill="white"/>
</clipPath>
</defs>
</svg>
