<svg width="1264" height="494" viewBox="0 0 1264 494" fill="none" xmlns="http://www.w3.org/2000/svg">
<g clip-path="url(#clip0_6_20)">
<path d="M125.142 21.9V25.19H65.6872V177H61.9272V25.19H2.47221V21.9H125.142ZM174.479 177V21.9H277.174V25.19H178.239V96.16H257.669V99.45H178.239V173.71H281.169V177H174.479ZM381.046 19.55C395.773 19.55 407.993 22.4483 417.706 28.245C427.42 33.885 434.078 42.9717 437.681 55.505L434.626 57.855C431.493 45.7917 425.305 36.94 416.061 31.3C406.818 25.66 395.146 22.84 381.046 22.84C370.706 22.84 361.698 24.5633 354.021 28.01C346.501 31.4567 340.626 36.0783 336.396 41.875C332.166 47.6717 330.051 54.1733 330.051 61.38C330.051 70.4667 333.106 77.7517 339.216 83.235C345.326 88.7183 355.901 93.0267 370.941 96.16L397.966 101.8C413.32 104.933 424.208 109.32 430.631 114.96C437.211 120.6 440.501 128.198 440.501 137.755C440.501 146.058 438.073 153.343 433.216 159.61C428.516 165.877 421.936 170.733 413.476 174.18C405.173 177.627 395.46 179.35 384.336 179.35C373.526 179.35 363.656 177.862 354.726 174.885C345.953 171.908 338.668 167.365 332.871 161.255C327.075 155.145 323.315 147.39 321.591 137.99L325.116 136.11C326.526 145.197 329.973 152.717 335.456 158.67C340.94 164.623 347.911 169.01 356.371 171.83C364.831 174.65 374.153 176.06 384.336 176.06C394.05 176.06 402.823 174.65 410.656 171.83C418.646 168.853 424.991 164.545 429.691 158.905C434.391 153.108 436.741 146.058 436.741 137.755C436.741 129.452 433.608 122.715 427.341 117.545C421.231 112.375 410.891 108.302 396.321 105.325L369.296 99.685C358.956 97.4917 350.653 94.75 344.386 91.46C338.12 88.0133 333.498 83.8617 330.521 79.005C327.701 74.1483 326.291 68.2733 326.291 61.38C326.291 54.0167 328.485 47.2017 332.871 40.935C337.258 34.5117 343.525 29.3417 351.671 25.425C359.818 21.5083 369.61 19.55 381.046 19.55ZM592.893 21.9V25.19H533.438V177H529.678V25.19H470.223V21.9H592.893ZM642.23 177V21.9H744.925V25.19H645.99V96.16H725.42V99.45H645.99V173.71H748.92V177H642.23ZM940.036 21.9C965.259 21.9 984.294 28.245 997.141 40.935C1009.99 53.625 1016.41 72.3467 1016.41 97.1C1016.41 123.263 1009.99 143.16 997.141 156.79C984.294 170.263 965.259 177 940.036 177H892.331V21.9H940.036ZM940.036 173.71C963.849 173.71 981.866 167.208 994.086 154.205C1006.46 141.202 1012.65 122.167 1012.65 97.1C1012.65 73.4433 1006.46 55.5833 994.086 43.52C981.866 31.3 963.849 25.19 940.036 25.19H896.091V173.71H940.036ZM1076.25 177V21.9H1178.94V25.19H1080.01V96.16H1159.44V99.45H1080.01V173.71H1182.94V177H1076.25ZM172.201 296L85.8012 384.5L82.2012 388.4L29.1012 442.7V410.3L140.701 296H172.201ZM41.1012 296V494H17.1012V296H41.1012ZM88.2012 369.2L173.101 494H144.301L68.4012 382.7L88.2012 369.2ZM243.976 494V296H382.876V318.5H267.976V382.4H357.376V404.9H267.976V471.5H387.376V494H243.976ZM489.285 471.5H602.685V494H465.285V296H489.285V471.5ZM698.582 471.5H811.982V494H674.582V296H698.582V471.5ZM883.879 494V296H1022.78V318.5H907.879V382.4H997.279V404.9H907.879V471.5H1027.28V494H883.879ZM1180.19 296C1200.39 296 1216.59 301.2 1228.79 311.6C1240.99 322 1247.09 336.1 1247.09 353.9C1247.09 371.7 1240.89 385.6 1228.49 395.6C1216.29 405.4 1200.09 410.3 1179.89 410.3L1177.79 411.8H1129.19V494H1105.19V296H1180.19ZM1179.89 389.3C1194.09 389.3 1204.59 386.4 1211.39 380.6C1218.39 374.6 1221.89 365.7 1221.89 353.9C1221.89 342.1 1218.39 333.3 1211.39 327.5C1204.59 321.5 1194.09 318.5 1179.89 318.5H1129.19V389.3H1179.89ZM1193.69 394.1L1259.09 494H1230.59L1173.59 407.3L1193.69 394.1Z" fill="#202072"/>
</g>
<defs>
<clipPath id="clip0_6_20">
<rect width="1264" height="494" fill="white"/>
</clipPath>
</defs>
</svg>
