<svg width="194" height="136" viewBox="0 0 194 136" fill="none" xmlns="http://www.w3.org/2000/svg">
<rect width="194" height="136" fill="white"/>
<path d="M27.6989 53.3622V43.7273H73.0938V53.3622H56.1719V99H44.6207V53.3622H27.6989ZM84.4762 99.7017C82.695 99.7017 81.1656 99.072 79.8881 97.8125C78.6287 96.535 77.9989 95.0057 77.9989 93.2244C77.9989 91.4612 78.6287 89.9498 79.8881 88.6903C81.1656 87.4309 82.695 86.8011 84.4762 86.8011C86.2035 86.8011 87.7148 87.4309 89.0103 88.6903C90.3058 89.9498 90.9535 91.4612 90.9535 93.2244C90.9535 94.4119 90.6476 95.5005 90.0359 96.4901C89.4421 97.4616 88.6594 98.2443 87.6879 98.8381C86.7163 99.4138 85.6457 99.7017 84.4762 99.7017ZM100.609 99V43.7273H112.295V68.098H113.023L132.914 43.7273H146.921L126.41 68.4759L147.164 99H133.184L118.043 76.2756L112.295 83.2926V99H100.609ZM159.511 99.7017C157.73 99.7017 156.201 99.072 154.923 97.8125C153.664 96.535 153.034 95.0057 153.034 93.2244C153.034 91.4612 153.664 89.9498 154.923 88.6903C156.201 87.4309 157.73 86.8011 159.511 86.8011C161.239 86.8011 162.75 87.4309 164.045 88.6903C165.341 89.9498 165.989 91.4612 165.989 93.2244C165.989 94.4119 165.683 95.5005 165.071 96.4901C164.477 97.4616 163.695 98.2443 162.723 98.8381C161.751 99.4138 160.681 99.7017 159.511 99.7017Z" fill="#202072"/>
</svg>
