<svg width="438" height="247" viewBox="0 0 438 247" fill="none" xmlns="http://www.w3.org/2000/svg">
<g clip-path="url(#clip0_1_38)">
<rect width="438" height="247" fill="white"/>
<path d="M41.642 20.4545V18.7273H78.9943V20.4545H61.1818V74H59.4545V20.4545H41.642ZM92.2457 74V18.7273H121.717V20.4545H93.973V45.5H120.098V47.2273H93.973V72.2727H122.473V74H92.2457ZM166.208 32.5455C165.938 28.767 164.49 25.6634 161.863 23.2344C159.254 20.8054 155.808 19.5909 151.526 19.5909C148.719 19.5909 146.21 20.1307 143.996 21.2102C141.783 22.2898 140.038 23.7741 138.761 25.6633C137.483 27.5346 136.844 29.6847 136.844 32.1136C136.844 33.517 137.078 34.8125 137.546 36C138.014 37.1875 138.725 38.276 139.678 39.2656C140.65 40.2372 141.864 41.1188 143.322 41.9105C144.797 42.6842 146.524 43.3769 148.504 43.9886L154.765 45.9318C157.158 46.6695 159.227 47.4972 160.972 48.4148C162.718 49.3324 164.157 50.367 165.29 51.5185C166.442 52.652 167.297 53.9205 167.854 55.3239C168.412 56.7093 168.691 58.2566 168.691 59.9659C168.691 62.8447 167.953 65.4086 166.478 67.6577C165.003 69.9067 162.942 71.67 160.298 72.9474C157.653 74.2249 154.585 74.8636 151.094 74.8636C147.73 74.8636 144.788 74.2789 142.269 73.1094C139.75 71.9219 137.753 70.2936 136.278 68.2244C134.82 66.1373 134.002 63.7443 133.822 61.0455H135.549C135.729 63.4205 136.476 65.5166 137.789 67.3338C139.103 69.151 140.884 70.5724 143.133 71.598C145.4 72.6236 148.054 73.1364 151.094 73.1364C154.261 73.1364 157.032 72.5876 159.407 71.4901C161.8 70.3745 163.653 68.8272 164.967 66.848C166.298 64.8688 166.964 62.5748 166.964 59.9659C166.964 57.9867 166.532 56.2505 165.668 54.7571C164.805 53.2457 163.446 51.9143 161.593 50.7628C159.74 49.6113 157.32 48.5767 154.333 47.6591L148.072 45.7159C143.736 44.3485 140.488 42.5402 138.329 40.2912C136.188 38.0421 135.117 35.3163 135.117 32.1136C135.117 29.3968 135.828 26.9678 137.249 24.8267C138.671 22.6676 140.614 20.9673 143.079 19.7258C145.562 18.4844 148.378 17.8636 151.526 17.8636C154.693 17.8636 157.473 18.4934 159.866 19.7528C162.259 21.0123 164.157 22.7486 165.56 24.9616C166.964 27.1747 167.755 29.7027 167.935 32.5455H166.208ZM179.169 20.4545V18.7273H216.522V20.4545H198.709V74H196.982V20.4545H179.169ZM229.773 74V18.7273H259.245V20.4545H231.5V45.5H257.625V47.2273H231.5V72.2727H260V74H229.773ZM309.997 74H295.531V18.7273H311.4C316.492 18.7273 320.846 19.8248 324.463 22.0199C328.097 24.197 330.877 27.3277 332.802 31.4119C334.745 35.4962 335.708 40.4081 335.69 46.1477C335.672 52.0312 334.646 57.0511 332.613 61.2074C330.598 65.3456 327.674 68.5123 323.842 70.7074C320.028 72.9025 315.413 74 309.997 74ZM297.258 72.2727H309.997C315.107 72.2727 319.452 71.2382 323.032 69.169C326.613 67.0819 329.33 64.0862 331.183 60.1818C333.054 56.2775 333.981 51.5994 333.963 46.1477C333.945 40.768 333.045 36.1619 331.264 32.3295C329.501 28.4972 326.946 25.5644 323.599 23.5312C320.252 21.4801 316.186 20.4545 311.4 20.4545H297.258V72.2727ZM349.859 74V18.7273H379.331V20.4545H351.586V45.5H377.711V47.2273H351.586V72.2727H380.086V74H349.859ZM43.0682 174V104.182H57.8295V134.966H58.75L83.875 104.182H101.568L75.6591 135.443L101.875 174H84.2159L65.0909 145.295L57.8295 154.159V174H43.0682ZM109.256 174V104.182H156.301V116.352H124.017V132.989H153.881V145.159H124.017V161.83H156.438V174H109.256ZM168.037 174V104.182H182.798V161.83H212.73V174H168.037ZM222.506 174V104.182H237.267V161.83H267.199V174H222.506ZM276.974 174V104.182H324.02V116.352H291.736V132.989H321.599V145.159H291.736V161.83H324.156V174H276.974ZM335.756 174V104.182H363.301C368.574 104.182 373.074 105.125 376.801 107.011C380.551 108.875 383.403 111.523 385.358 114.955C387.335 118.364 388.324 122.375 388.324 126.989C388.324 131.625 387.324 135.614 385.324 138.955C383.324 142.273 380.426 144.818 376.631 146.591C372.858 148.364 368.29 149.25 362.926 149.25H344.483V137.386H360.54C363.358 137.386 365.699 137 367.562 136.227C369.426 135.455 370.813 134.295 371.722 132.75C372.653 131.205 373.119 129.284 373.119 126.989C373.119 124.67 372.653 122.716 371.722 121.125C370.813 119.534 369.415 118.33 367.528 117.511C365.665 116.67 363.313 116.25 360.472 116.25H350.517V174H335.756ZM373.46 142.227L390.812 174H374.517L357.54 142.227H373.46Z" fill="#202072"/>
<path d="M51.9229 201.545H53.5522V210.454C53.5522 211.374 53.3354 212.195 52.9018 212.917C52.4726 213.636 51.866 214.203 51.082 214.619C50.298 215.031 49.3783 215.237 48.3228 215.237C47.2673 215.237 46.3475 215.031 45.5635 214.619C44.7796 214.203 44.1708 213.636 43.7372 212.917C43.308 212.195 43.0934 211.374 43.0934 210.454V201.545H44.7226V210.322C44.7226 210.979 44.8672 211.564 45.1562 212.077C45.4453 212.585 45.857 212.985 46.3913 213.279C46.93 213.568 47.5738 213.712 48.3228 213.712C49.0717 213.712 49.7155 213.568 50.2542 213.279C50.7929 212.985 51.2046 212.585 51.4893 212.077C51.7784 211.564 51.9229 210.979 51.9229 210.322V201.545ZM56.5955 215V204.909H58.0934V206.486H58.2248C58.435 205.947 58.7745 205.529 59.2431 205.231C59.7117 204.929 60.2745 204.778 60.9315 204.778C61.5972 204.778 62.1512 204.929 62.5936 205.231C63.0403 205.529 63.3885 205.947 63.6382 206.486H63.7433C64.0017 205.965 64.3893 205.551 64.9061 205.244C65.4229 204.933 66.0426 204.778 66.7653 204.778C67.6675 204.778 68.4055 205.06 68.9792 205.625C69.553 206.186 69.8399 207.06 69.8399 208.246V215H68.2894V208.246C68.2894 207.502 68.0858 206.97 67.6785 206.65C67.2712 206.33 66.7916 206.17 66.2397 206.17C65.5302 206.17 64.9806 206.385 64.5908 206.814C64.201 207.239 64.0061 207.778 64.0061 208.43V215H62.4294V208.089C62.4294 207.515 62.2432 207.053 61.8709 206.703C61.4987 206.348 61.0191 206.17 60.4322 206.17C60.0293 206.17 59.6526 206.278 59.3022 206.492C58.9562 206.707 58.6759 207.005 58.4613 207.386C58.2511 207.762 58.146 208.198 58.146 208.693V215H56.5955ZM75.6441 215.237C75.0047 215.237 74.4244 215.116 73.9032 214.875C73.382 214.63 72.9681 214.277 72.6615 213.817C72.3549 213.353 72.2016 212.793 72.2016 212.136C72.2016 211.558 72.3155 211.089 72.5433 210.73C72.771 210.366 73.0754 210.082 73.4564 209.876C73.8375 209.67 74.2579 209.517 74.7178 209.416C75.182 209.311 75.6485 209.228 76.1171 209.166C76.7303 209.087 77.2274 209.028 77.6084 208.989C77.9938 208.945 78.2741 208.873 78.4493 208.772C78.6289 208.671 78.7187 208.496 78.7187 208.246V208.194C78.7187 207.546 78.5413 207.042 78.1865 206.683C77.8362 206.324 77.304 206.144 76.5901 206.144C75.85 206.144 75.2696 206.306 74.8492 206.63C74.4287 206.954 74.1331 207.3 73.9623 207.668L72.4907 207.143C72.7535 206.53 73.1039 206.052 73.5418 205.711C73.9842 205.365 74.466 205.124 74.9871 204.988C75.5127 204.848 76.0295 204.778 76.5376 204.778C76.8617 204.778 77.234 204.817 77.6544 204.896C78.0792 204.97 78.4887 205.126 78.8829 205.362C79.2815 205.599 79.6121 205.956 79.8749 206.433C80.1377 206.911 80.2691 207.55 80.2691 208.352V215H78.7187V213.634H78.6398C78.5347 213.853 78.3595 214.087 78.1143 214.336C77.869 214.586 77.5427 214.799 77.1354 214.974C76.7281 215.149 76.231 215.237 75.6441 215.237ZM75.8806 213.844C76.4938 213.844 77.0106 213.723 77.431 213.482C77.8559 213.242 78.1756 212.931 78.3902 212.55C78.6092 212.169 78.7187 211.768 78.7187 211.347V209.928C78.653 210.007 78.5085 210.079 78.2851 210.145C78.0661 210.206 77.8121 210.261 77.523 210.309C77.2383 210.353 76.9602 210.393 76.6887 210.428C76.4215 210.458 76.2047 210.484 76.0383 210.506C75.6354 210.559 75.2587 210.644 74.9083 210.763C74.5623 210.876 74.282 211.049 74.0674 211.282C73.8572 211.509 73.7521 211.82 73.7521 212.214C73.7521 212.753 73.9513 213.161 74.3499 213.436C74.7528 213.708 75.2631 213.844 75.8806 213.844ZM92.7957 204.909V206.223H87.3561V204.909H92.7957ZM88.9853 215V203.516C88.9853 202.938 89.1211 202.456 89.3926 202.071C89.6642 201.686 90.0168 201.397 90.4504 201.204C90.8839 201.011 91.3416 200.915 91.8234 200.915C92.2044 200.915 92.5154 200.945 92.7563 201.007C92.9972 201.068 93.1767 201.125 93.295 201.178L92.8483 202.518C92.7694 202.491 92.6599 202.459 92.5198 202.419C92.384 202.38 92.2044 202.36 91.9811 202.36C91.4686 202.36 91.0986 202.489 90.8708 202.748C90.6474 203.006 90.5358 203.385 90.5358 203.884V215H88.9853ZM98.7839 215.21C97.8116 215.21 96.9729 214.996 96.2677 214.566C95.567 214.133 95.0261 213.528 94.645 212.753C94.2684 211.974 94.0801 211.067 94.0801 210.033C94.0801 209 94.2684 208.089 94.645 207.3C95.0261 206.508 95.556 205.89 96.2349 205.448C96.9181 205.001 97.7152 204.778 98.6262 204.778C99.1518 204.778 99.6708 204.865 100.183 205.04C100.696 205.216 101.162 205.5 101.583 205.895C102.003 206.284 102.338 206.801 102.588 207.445C102.837 208.089 102.962 208.882 102.962 209.823V210.48H95.1837V209.14H101.385C101.385 208.571 101.272 208.062 101.044 207.616C100.82 207.169 100.501 206.816 100.085 206.558C99.673 206.3 99.1868 206.17 98.6262 206.17C98.0087 206.17 97.4744 206.324 97.0232 206.63C96.5765 206.933 96.2327 207.327 95.9918 207.813C95.7509 208.299 95.6305 208.82 95.6305 209.376V210.27C95.6305 211.032 95.7619 211.678 96.0247 212.208C96.2918 212.733 96.6619 213.134 97.1349 213.41C97.6079 213.682 98.1576 213.817 98.7839 213.817C99.1912 213.817 99.5591 213.761 99.8876 213.647C100.22 213.528 100.507 213.353 100.748 213.121C100.989 212.885 101.175 212.591 101.307 212.241L102.804 212.661C102.647 213.169 102.382 213.616 102.01 214.001C101.637 214.382 101.177 214.68 100.63 214.895C100.082 215.105 99.4671 215.21 98.7839 215.21ZM105.321 215V204.909H106.819V206.433H106.924C107.108 205.934 107.44 205.529 107.922 205.218C108.404 204.907 108.947 204.751 109.551 204.751C109.665 204.751 109.808 204.754 109.978 204.758C110.149 204.762 110.279 204.769 110.366 204.778V206.354C110.314 206.341 110.193 206.322 110.005 206.295C109.821 206.265 109.626 206.249 109.42 206.249C108.93 206.249 108.492 206.352 108.106 206.558C107.725 206.76 107.423 207.04 107.2 207.399C106.981 207.754 106.871 208.159 106.871 208.614V215H105.321ZM112.204 215V204.909H113.702V206.433H113.807C113.991 205.934 114.324 205.529 114.806 205.218C115.287 204.907 115.83 204.751 116.435 204.751C116.549 204.751 116.691 204.754 116.862 204.758C117.033 204.762 117.162 204.769 117.249 204.778V206.354C117.197 206.341 117.076 206.322 116.888 206.295C116.704 206.265 116.509 206.249 116.303 206.249C115.813 206.249 115.375 206.352 114.989 206.558C114.608 206.76 114.306 207.04 114.083 207.399C113.864 207.754 113.754 208.159 113.754 208.614V215H112.204ZM122.057 215.237C121.417 215.237 120.837 215.116 120.316 214.875C119.795 214.63 119.381 214.277 119.074 213.817C118.768 213.353 118.614 212.793 118.614 212.136C118.614 211.558 118.728 211.089 118.956 210.73C119.184 210.366 119.488 210.082 119.869 209.876C120.25 209.67 120.671 209.517 121.13 209.416C121.595 209.311 122.061 209.228 122.53 209.166C123.143 209.087 123.64 209.028 124.021 208.989C124.406 208.945 124.687 208.873 124.862 208.772C125.041 208.671 125.131 208.496 125.131 208.246V208.194C125.131 207.546 124.954 207.042 124.599 206.683C124.249 206.324 123.717 206.144 123.003 206.144C122.263 206.144 121.682 206.306 121.262 206.63C120.841 206.954 120.546 207.3 120.375 207.668L118.903 207.143C119.166 206.53 119.516 206.052 119.954 205.711C120.397 205.365 120.879 205.124 121.4 204.988C121.925 204.848 122.442 204.778 122.95 204.778C123.274 204.778 123.647 204.817 124.067 204.896C124.492 204.97 124.901 205.126 125.296 205.362C125.694 205.599 126.025 205.956 126.288 206.433C126.55 206.911 126.682 207.55 126.682 208.352V215H125.131V213.634H125.052C124.947 213.853 124.772 214.087 124.527 214.336C124.282 214.586 123.955 214.799 123.548 214.974C123.141 215.149 122.644 215.237 122.057 215.237ZM122.293 213.844C122.906 213.844 123.423 213.723 123.844 213.482C124.268 213.242 124.588 212.931 124.803 212.55C125.022 212.169 125.131 211.768 125.131 211.347V209.928C125.066 210.007 124.921 210.079 124.698 210.145C124.479 210.206 124.225 210.261 123.936 210.309C123.651 210.353 123.373 210.393 123.101 210.428C122.834 210.458 122.617 210.484 122.451 210.506C122.048 210.559 121.671 210.644 121.321 210.763C120.975 210.876 120.695 211.049 120.48 211.282C120.27 211.509 120.165 211.82 120.165 212.214C120.165 212.753 120.364 213.161 120.762 213.436C121.165 213.708 121.676 213.844 122.293 213.844ZM129.512 215V204.909H131.009V206.486H131.141C131.351 205.947 131.69 205.529 132.159 205.231C132.628 204.929 133.191 204.778 133.848 204.778C134.513 204.778 135.067 204.929 135.51 205.231C135.956 205.529 136.305 205.947 136.554 206.486H136.659C136.918 205.965 137.305 205.551 137.822 205.244C138.339 204.933 138.959 204.778 139.681 204.778C140.584 204.778 141.322 205.06 141.895 205.625C142.469 206.186 142.756 207.06 142.756 208.246V215H141.205V208.246C141.205 207.502 141.002 206.97 140.594 206.65C140.187 206.33 139.708 206.17 139.156 206.17C138.446 206.17 137.897 206.385 137.507 206.814C137.117 207.239 136.922 207.778 136.922 208.43V215H135.345V208.089C135.345 207.515 135.159 207.053 134.787 206.703C134.415 206.348 133.935 206.17 133.348 206.17C132.945 206.17 132.569 206.278 132.218 206.492C131.872 206.707 131.592 207.005 131.377 207.386C131.167 207.762 131.062 208.198 131.062 208.693V215H129.512ZM149.821 215.21C148.849 215.21 148.01 214.996 147.305 214.566C146.605 214.133 146.064 213.528 145.683 212.753C145.306 211.974 145.118 211.067 145.118 210.033C145.118 209 145.306 208.089 145.683 207.3C146.064 206.508 146.594 205.89 147.272 205.448C147.956 205.001 148.753 204.778 149.664 204.778C150.189 204.778 150.708 204.865 151.221 205.04C151.733 205.216 152.2 205.5 152.62 205.895C153.041 206.284 153.376 206.801 153.625 207.445C153.875 208.089 154 208.882 154 209.823V210.48H146.221V209.14H152.423C152.423 208.571 152.309 208.062 152.081 207.616C151.858 207.169 151.538 206.816 151.122 206.558C150.711 206.3 150.224 206.17 149.664 206.17C149.046 206.17 148.512 206.324 148.061 206.63C147.614 206.933 147.27 207.327 147.029 207.813C146.789 208.299 146.668 208.82 146.668 209.376V210.27C146.668 211.032 146.799 211.678 147.062 212.208C147.329 212.733 147.7 213.134 148.173 213.41C148.646 213.682 149.195 213.817 149.821 213.817C150.229 213.817 150.597 213.761 150.925 213.647C151.258 213.528 151.545 213.353 151.786 213.121C152.027 212.885 152.213 212.591 152.344 212.241L153.842 212.661C153.684 213.169 153.419 213.616 153.047 214.001C152.675 214.382 152.215 214.68 151.668 214.895C151.12 215.105 150.505 215.21 149.821 215.21ZM157.909 208.93V215H156.358V204.909H157.856V206.486H157.988C158.224 205.973 158.583 205.562 159.065 205.251C159.547 204.935 160.169 204.778 160.931 204.778C161.614 204.778 162.212 204.918 162.724 205.198C163.237 205.474 163.635 205.895 163.92 206.46C164.205 207.02 164.347 207.73 164.347 208.588V215H162.796V208.693C162.796 207.9 162.591 207.283 162.179 206.841C161.767 206.394 161.202 206.17 160.484 206.17C159.989 206.17 159.547 206.278 159.157 206.492C158.771 206.707 158.467 207.02 158.244 207.432C158.02 207.844 157.909 208.343 157.909 208.93ZM171.569 204.909V206.223H166.339V204.909H171.569ZM167.863 202.491H169.414V212.109C169.414 212.547 169.477 212.876 169.604 213.095C169.736 213.309 169.902 213.454 170.103 213.528C170.309 213.598 170.526 213.634 170.754 213.634C170.925 213.634 171.065 213.625 171.174 213.607C171.284 213.585 171.371 213.568 171.437 213.555L171.752 214.947C171.647 214.987 171.501 215.026 171.312 215.066C171.124 215.109 170.885 215.131 170.596 215.131C170.158 215.131 169.729 215.037 169.309 214.849C168.892 214.661 168.546 214.374 168.271 213.988C167.999 213.603 167.863 213.117 167.863 212.53V202.491ZM176.87 215.237C176.231 215.237 175.65 215.116 175.129 214.875C174.608 214.63 174.194 214.277 173.888 213.817C173.581 213.353 173.428 212.793 173.428 212.136C173.428 211.558 173.542 211.089 173.769 210.73C173.997 210.366 174.301 210.082 174.683 209.876C175.064 209.67 175.484 209.517 175.944 209.416C176.408 209.311 176.875 209.228 177.343 209.166C177.956 209.087 178.453 209.028 178.834 208.989C179.22 208.945 179.5 208.873 179.675 208.772C179.855 208.671 179.945 208.496 179.945 208.246V208.194C179.945 207.546 179.767 207.042 179.413 206.683C179.062 206.324 178.53 206.144 177.816 206.144C177.076 206.144 176.496 206.306 176.075 206.63C175.655 206.954 175.359 207.3 175.188 207.668L173.717 207.143C173.98 206.53 174.33 206.052 174.768 205.711C175.21 205.365 175.692 205.124 176.213 204.988C176.739 204.848 177.256 204.778 177.764 204.778C178.088 204.778 178.46 204.817 178.88 204.896C179.305 204.97 179.715 205.126 180.109 205.362C180.508 205.599 180.838 205.956 181.101 206.433C181.364 206.911 181.495 207.55 181.495 208.352V215H179.945V213.634H179.866C179.761 213.853 179.586 214.087 179.34 214.336C179.095 214.586 178.769 214.799 178.361 214.974C177.954 215.149 177.457 215.237 176.87 215.237ZM177.107 213.844C177.72 213.844 178.237 213.723 178.657 213.482C179.082 213.242 179.402 212.931 179.616 212.55C179.835 212.169 179.945 211.768 179.945 211.347V209.928C179.879 210.007 179.735 210.079 179.511 210.145C179.292 210.206 179.038 210.261 178.749 210.309C178.464 210.353 178.186 210.393 177.915 210.428C177.648 210.458 177.431 210.484 177.264 210.506C176.861 210.559 176.485 210.644 176.134 210.763C175.788 210.876 175.508 211.049 175.293 211.282C175.083 211.509 174.978 211.82 174.978 212.214C174.978 212.753 175.177 213.161 175.576 213.436C175.979 213.708 176.489 213.844 177.107 213.844ZM193.339 215.21C192.498 215.21 191.755 214.998 191.111 214.573C190.468 214.144 189.964 213.539 189.6 212.76C189.237 211.976 189.055 211.049 189.055 209.981C189.055 208.921 189.237 208.001 189.6 207.222C189.964 206.442 190.47 205.84 191.118 205.415C191.766 204.99 192.515 204.778 193.365 204.778C194.022 204.778 194.541 204.887 194.922 205.106C195.307 205.321 195.601 205.566 195.802 205.842C196.008 206.114 196.168 206.337 196.282 206.512H196.413V201.545H197.964V215H196.466V213.45H196.282C196.168 213.634 196.006 213.866 195.796 214.146C195.585 214.422 195.285 214.669 194.896 214.888C194.506 215.103 193.987 215.21 193.339 215.21ZM193.549 213.817C194.171 213.817 194.696 213.655 195.125 213.331C195.555 213.003 195.881 212.55 196.104 211.971C196.328 211.389 196.439 210.717 196.439 209.955C196.439 209.201 196.33 208.542 196.111 207.977C195.892 207.408 195.568 206.965 195.139 206.65C194.709 206.33 194.179 206.17 193.549 206.17C192.892 206.17 192.344 206.339 191.906 206.676C191.473 207.009 191.146 207.462 190.927 208.036C190.713 208.606 190.606 209.245 190.606 209.955C190.606 210.673 190.715 211.325 190.934 211.912C191.157 212.495 191.486 212.959 191.92 213.305C192.357 213.647 192.901 213.817 193.549 213.817ZM205.249 215.21C204.277 215.21 203.438 214.996 202.733 214.566C202.032 214.133 201.491 213.528 201.11 212.753C200.734 211.974 200.545 211.067 200.545 210.033C200.545 209 200.734 208.089 201.11 207.3C201.491 206.508 202.021 205.89 202.7 205.448C203.383 205.001 204.181 204.778 205.092 204.778C205.617 204.778 206.136 204.865 206.649 205.04C207.161 205.216 207.627 205.5 208.048 205.895C208.468 206.284 208.803 206.801 209.053 207.445C209.303 208.089 209.427 208.882 209.427 209.823V210.48H201.649V209.14H207.851C207.851 208.571 207.737 208.062 207.509 207.616C207.286 207.169 206.966 206.816 206.55 206.558C206.138 206.3 205.652 206.17 205.092 206.17C204.474 206.17 203.94 206.324 203.489 206.63C203.042 206.933 202.698 207.327 202.457 207.813C202.216 208.299 202.096 208.82 202.096 209.376V210.27C202.096 211.032 202.227 211.678 202.49 212.208C202.757 212.733 203.127 213.134 203.6 213.41C204.073 213.682 204.623 213.817 205.249 213.817C205.657 213.817 206.024 213.761 206.353 213.647C206.686 213.528 206.973 213.353 207.214 213.121C207.454 212.885 207.641 212.591 207.772 212.241L209.27 212.661C209.112 213.169 208.847 213.616 208.475 214.001C208.103 214.382 207.643 214.68 207.095 214.895C206.548 215.105 205.932 215.21 205.249 215.21ZM216.989 218.784V204.909H218.487V206.512H218.671C218.785 206.337 218.942 206.114 219.144 205.842C219.35 205.566 219.643 205.321 220.024 205.106C220.41 204.887 220.931 204.778 221.588 204.778C222.437 204.778 223.186 204.99 223.835 205.415C224.483 205.84 224.989 206.442 225.352 207.222C225.716 208.001 225.897 208.921 225.897 209.981C225.897 211.049 225.716 211.976 225.352 212.76C224.989 213.539 224.485 214.144 223.841 214.573C223.197 214.998 222.455 215.21 221.614 215.21C220.966 215.21 220.447 215.103 220.057 214.888C219.667 214.669 219.367 214.422 219.157 214.146C218.947 213.866 218.785 213.634 218.671 213.45H218.54V218.784H216.989ZM218.513 209.955C218.513 210.717 218.625 211.389 218.848 211.971C219.072 212.55 219.398 213.003 219.827 213.331C220.256 213.655 220.782 213.817 221.404 213.817C222.052 213.817 222.593 213.647 223.027 213.305C223.465 212.959 223.793 212.495 224.012 211.912C224.235 211.325 224.347 210.673 224.347 209.955C224.347 209.245 224.238 208.606 224.019 208.036C223.804 207.462 223.478 207.009 223.04 206.676C222.606 206.339 222.061 206.17 221.404 206.17C220.773 206.17 220.243 206.33 219.814 206.65C219.385 206.965 219.061 207.408 218.842 207.977C218.623 208.542 218.513 209.201 218.513 209.955ZM228.263 215V204.909H229.76V206.433H229.866C230.049 205.934 230.382 205.529 230.864 205.218C231.346 204.907 231.889 204.751 232.493 204.751C232.607 204.751 232.75 204.754 232.92 204.758C233.091 204.762 233.22 204.769 233.308 204.778V206.354C233.255 206.341 233.135 206.322 232.947 206.295C232.763 206.265 232.568 206.249 232.362 206.249C231.871 206.249 231.433 206.352 231.048 206.558C230.667 206.76 230.365 207.04 230.141 207.399C229.922 207.754 229.813 208.159 229.813 208.614V215H228.263ZM238.938 215.21C238.027 215.21 237.228 214.993 236.54 214.56C235.857 214.126 235.323 213.52 234.937 212.74C234.556 211.96 234.366 211.049 234.366 210.007C234.366 208.956 234.556 208.038 234.937 207.254C235.323 206.47 235.857 205.862 236.54 205.428C237.228 204.994 238.027 204.778 238.938 204.778C239.849 204.778 240.646 204.994 241.329 205.428C242.017 205.862 242.551 206.47 242.932 207.254C243.318 208.038 243.511 208.956 243.511 210.007C243.511 211.049 243.318 211.96 242.932 212.74C242.551 213.52 242.017 214.126 241.329 214.56C240.646 214.993 239.849 215.21 238.938 215.21ZM238.938 213.817C239.63 213.817 240.2 213.64 240.646 213.285C241.093 212.931 241.424 212.464 241.638 211.886C241.853 211.308 241.96 210.682 241.96 210.007C241.96 209.333 241.853 208.704 241.638 208.122C241.424 207.539 241.093 207.068 240.646 206.709C240.2 206.35 239.63 206.17 238.938 206.17C238.246 206.17 237.677 206.35 237.23 206.709C236.783 207.068 236.453 207.539 236.238 208.122C236.023 208.704 235.916 209.333 235.916 210.007C235.916 210.682 236.023 211.308 236.238 211.886C236.453 212.464 236.783 212.931 237.23 213.285C237.677 213.64 238.246 213.817 238.938 213.817ZM245.877 204.909H247.428V215.736C247.428 216.358 247.32 216.896 247.106 217.352C246.896 217.807 246.576 218.16 246.147 218.41C245.722 218.659 245.185 218.784 244.537 218.784C244.485 218.784 244.432 218.784 244.379 218.784C244.327 218.784 244.274 218.784 244.222 218.784V217.339C244.274 217.339 244.322 217.339 244.366 217.339C244.41 217.339 244.458 217.339 244.511 217.339C244.984 217.339 245.33 217.199 245.549 216.918C245.768 216.642 245.877 216.248 245.877 215.736V204.909ZM246.639 203.227C246.337 203.227 246.077 203.124 245.858 202.919C245.643 202.713 245.536 202.465 245.536 202.176C245.536 201.887 245.643 201.64 245.858 201.434C246.077 201.228 246.337 201.125 246.639 201.125C246.942 201.125 247.2 201.228 247.415 201.434C247.634 201.64 247.743 201.887 247.743 202.176C247.743 202.465 247.634 202.713 247.415 202.919C247.2 203.124 246.942 203.227 246.639 203.227ZM254.498 215.21C253.526 215.21 252.687 214.996 251.982 214.566C251.281 214.133 250.74 213.528 250.359 212.753C249.983 211.974 249.794 211.067 249.794 210.033C249.794 209 249.983 208.089 250.359 207.3C250.74 206.508 251.27 205.89 251.949 205.448C252.632 205.001 253.43 204.778 254.341 204.778C254.866 204.778 255.385 204.865 255.898 205.04C256.41 205.216 256.876 205.5 257.297 205.895C257.717 206.284 258.052 206.801 258.302 207.445C258.552 208.089 258.677 208.882 258.677 209.823V210.48H250.898V209.14H257.1C257.1 208.571 256.986 208.062 256.758 207.616C256.535 207.169 256.215 206.816 255.799 206.558C255.387 206.3 254.901 206.17 254.341 206.17C253.723 206.17 253.189 206.324 252.738 206.63C252.291 206.933 251.947 207.327 251.706 207.813C251.465 208.299 251.345 208.82 251.345 209.376V210.27C251.345 211.032 251.476 211.678 251.739 212.208C252.006 212.733 252.376 213.134 252.849 213.41C253.322 213.682 253.872 213.817 254.498 213.817C254.906 213.817 255.273 213.761 255.602 213.647C255.935 213.528 256.222 213.353 256.463 213.121C256.703 212.885 256.89 212.591 257.021 212.241L258.519 212.661C258.361 213.169 258.096 213.616 257.724 214.001C257.352 214.382 256.892 214.68 256.344 214.895C255.797 215.105 255.181 215.21 254.498 215.21ZM265.423 204.909V206.223H260.194V204.909H265.423ZM261.718 202.491H263.269V212.109C263.269 212.547 263.332 212.876 263.459 213.095C263.591 213.309 263.757 213.454 263.958 213.528C264.164 213.598 264.381 213.634 264.609 213.634C264.78 213.634 264.92 213.625 265.029 213.607C265.139 213.585 265.226 213.568 265.292 213.555L265.607 214.947C265.502 214.987 265.356 215.026 265.167 215.066C264.979 215.109 264.74 215.131 264.451 215.131C264.013 215.131 263.584 215.037 263.164 214.849C262.747 214.661 262.401 214.374 262.126 213.988C261.854 213.603 261.718 213.117 261.718 212.53V202.491ZM270.725 215.237C270.086 215.237 269.505 215.116 268.984 214.875C268.463 214.63 268.049 214.277 267.743 213.817C267.436 213.353 267.283 212.793 267.283 212.136C267.283 211.558 267.397 211.089 267.624 210.73C267.852 210.366 268.156 210.082 268.537 209.876C268.919 209.67 269.339 209.517 269.799 209.416C270.263 209.311 270.73 209.228 271.198 209.166C271.811 209.087 272.308 209.028 272.689 208.989C273.075 208.945 273.355 208.873 273.53 208.772C273.71 208.671 273.8 208.496 273.8 208.246V208.194C273.8 207.546 273.622 207.042 273.268 206.683C272.917 206.324 272.385 206.144 271.671 206.144C270.931 206.144 270.351 206.306 269.93 206.63C269.51 206.954 269.214 207.3 269.043 207.668L267.572 207.143C267.835 206.53 268.185 206.052 268.623 205.711C269.065 205.365 269.547 205.124 270.068 204.988C270.594 204.848 271.111 204.778 271.619 204.778C271.943 204.778 272.315 204.817 272.735 204.896C273.16 204.97 273.57 205.126 273.964 205.362C274.363 205.599 274.693 205.956 274.956 206.433C275.219 206.911 275.35 207.55 275.35 208.352V215H273.8V213.634H273.721C273.616 213.853 273.441 214.087 273.195 214.336C272.95 214.586 272.624 214.799 272.216 214.974C271.809 215.149 271.312 215.237 270.725 215.237ZM270.962 213.844C271.575 213.844 272.092 213.723 272.512 213.482C272.937 213.242 273.257 212.931 273.471 212.55C273.69 212.169 273.8 211.768 273.8 211.347V209.928C273.734 210.007 273.59 210.079 273.366 210.145C273.147 210.206 272.893 210.261 272.604 210.309C272.319 210.353 272.041 210.393 271.77 210.428C271.503 210.458 271.286 210.484 271.119 210.506C270.716 210.559 270.34 210.644 269.989 210.763C269.643 210.876 269.363 211.049 269.148 211.282C268.938 211.509 268.833 211.82 268.833 212.214C268.833 212.753 269.032 213.161 269.431 213.436C269.834 213.708 270.344 213.844 270.962 213.844ZM278.18 215V204.909H279.678V206.433H279.783C279.967 205.934 280.3 205.529 280.782 205.218C281.263 204.907 281.806 204.751 282.411 204.751C282.525 204.751 282.667 204.754 282.838 204.758C283.009 204.762 283.138 204.769 283.225 204.778V206.354C283.173 206.341 283.052 206.322 282.864 206.295C282.68 206.265 282.485 206.249 282.279 206.249C281.789 206.249 281.351 206.352 280.966 206.558C280.584 206.76 280.282 207.04 280.059 207.399C279.84 207.754 279.73 208.159 279.73 208.614V215H278.18ZM294.76 204.909V206.223H289.32V204.909H294.76ZM290.95 215V203.516C290.95 202.938 291.085 202.456 291.357 202.071C291.629 201.686 291.981 201.397 292.415 201.204C292.848 201.011 293.306 200.915 293.788 200.915C294.169 200.915 294.48 200.945 294.721 201.007C294.962 201.068 295.141 201.125 295.259 201.178L294.813 202.518C294.734 202.491 294.624 202.459 294.484 202.419C294.348 202.38 294.169 202.36 293.945 202.36C293.433 202.36 293.063 202.489 292.835 202.748C292.612 203.006 292.5 203.385 292.5 203.884V215H290.95ZM300.748 215.21C299.776 215.21 298.937 214.996 298.232 214.566C297.531 214.133 296.99 213.528 296.609 212.753C296.233 211.974 296.044 211.067 296.044 210.033C296.044 209 296.233 208.089 296.609 207.3C296.99 206.508 297.52 205.89 298.199 205.448C298.882 205.001 299.68 204.778 300.591 204.778C301.116 204.778 301.635 204.865 302.148 205.04C302.66 205.216 303.126 205.5 303.547 205.895C303.967 206.284 304.302 206.801 304.552 207.445C304.802 208.089 304.927 208.882 304.927 209.823V210.48H297.148V209.14H303.35C303.35 208.571 303.236 208.062 303.008 207.616C302.785 207.169 302.465 206.816 302.049 206.558C301.637 206.3 301.151 206.17 300.591 206.17C299.973 206.17 299.439 206.324 298.988 206.63C298.541 206.933 298.197 207.327 297.956 207.813C297.715 208.299 297.595 208.82 297.595 209.376V210.27C297.595 211.032 297.726 211.678 297.989 212.208C298.256 212.733 298.626 213.134 299.099 213.41C299.572 213.682 300.122 213.817 300.748 213.817C301.156 213.817 301.523 213.761 301.852 213.647C302.185 213.528 302.472 213.353 302.713 213.121C302.953 212.885 303.14 212.591 303.271 212.241L304.769 212.661C304.611 213.169 304.346 213.616 303.974 214.001C303.602 214.382 303.142 214.68 302.594 214.895C302.047 215.105 301.431 215.21 300.748 215.21ZM307.285 215V204.909H308.783V206.433H308.888C309.072 205.934 309.405 205.529 309.887 205.218C310.368 204.907 310.911 204.751 311.516 204.751C311.63 204.751 311.772 204.754 311.943 204.758C312.114 204.762 312.243 204.769 312.33 204.778V206.354C312.278 206.341 312.157 206.322 311.969 206.295C311.785 206.265 311.59 206.249 311.384 206.249C310.894 206.249 310.456 206.352 310.071 206.558C309.689 206.76 309.387 207.04 309.164 207.399C308.945 207.754 308.835 208.159 308.835 208.614V215H307.285ZM314.168 215V204.909H315.666V206.433H315.771C315.955 205.934 316.288 205.529 316.77 205.218C317.252 204.907 317.795 204.751 318.399 204.751C318.513 204.751 318.655 204.754 318.826 204.758C318.997 204.762 319.126 204.769 319.214 204.778V206.354C319.161 206.341 319.041 206.322 318.852 206.295C318.668 206.265 318.474 206.249 318.268 206.249C317.777 206.249 317.339 206.352 316.954 206.558C316.573 206.76 316.271 207.04 316.047 207.399C315.828 207.754 315.719 208.159 315.719 208.614V215H314.168ZM324.021 215.237C323.382 215.237 322.801 215.116 322.28 214.875C321.759 214.63 321.345 214.277 321.038 213.817C320.732 213.353 320.579 212.793 320.579 212.136C320.579 211.558 320.692 211.089 320.92 210.73C321.148 210.366 321.452 210.082 321.833 209.876C322.214 209.67 322.635 209.517 323.095 209.416C323.559 209.311 324.025 209.228 324.494 209.166C325.107 209.087 325.604 209.028 325.985 208.989C326.371 208.945 326.651 208.873 326.826 208.772C327.006 208.671 327.096 208.496 327.096 208.246V208.194C327.096 207.546 326.918 207.042 326.563 206.683C326.213 206.324 325.681 206.144 324.967 206.144C324.227 206.144 323.647 206.306 323.226 206.63C322.806 206.954 322.51 207.3 322.339 207.668L320.868 207.143C321.13 206.53 321.481 206.052 321.919 205.711C322.361 205.365 322.843 205.124 323.364 204.988C323.89 204.848 324.406 204.778 324.915 204.778C325.239 204.778 325.611 204.817 326.031 204.896C326.456 204.97 326.866 205.126 327.26 205.362C327.658 205.599 327.989 205.956 328.252 206.433C328.515 206.911 328.646 207.55 328.646 208.352V215H327.096V213.634H327.017C326.912 213.853 326.736 214.087 326.491 214.336C326.246 214.586 325.92 214.799 325.512 214.974C325.105 215.149 324.608 215.237 324.021 215.237ZM324.258 213.844C324.871 213.844 325.388 213.723 325.808 213.482C326.233 213.242 326.553 212.931 326.767 212.55C326.986 212.169 327.096 211.768 327.096 211.347V209.928C327.03 210.007 326.885 210.079 326.662 210.145C326.443 210.206 326.189 210.261 325.9 210.309C325.615 210.353 325.337 210.393 325.066 210.428C324.798 210.458 324.582 210.484 324.415 210.506C324.012 210.559 323.636 210.644 323.285 210.763C322.939 210.876 322.659 211.049 322.444 211.282C322.234 211.509 322.129 211.82 322.129 212.214C322.129 212.753 322.328 213.161 322.727 213.436C323.13 213.708 323.64 213.844 324.258 213.844ZM331.476 215V204.909H332.974V206.486H333.105C333.315 205.947 333.655 205.529 334.123 205.231C334.592 204.929 335.155 204.778 335.812 204.778C336.478 204.778 337.032 204.929 337.474 205.231C337.921 205.529 338.269 205.947 338.519 206.486H338.624C338.882 205.965 339.27 205.551 339.786 205.244C340.303 204.933 340.923 204.778 341.646 204.778C342.548 204.778 343.286 205.06 343.86 205.625C344.433 206.186 344.72 207.06 344.72 208.246V215H343.17V208.246C343.17 207.502 342.966 206.97 342.559 206.65C342.152 206.33 341.672 206.17 341.12 206.17C340.411 206.17 339.861 206.385 339.471 206.814C339.081 207.239 338.886 207.778 338.886 208.43V215H337.31V208.089C337.31 207.515 337.124 207.053 336.751 206.703C336.379 206.348 335.899 206.17 335.313 206.17C334.91 206.17 334.533 206.278 334.183 206.492C333.837 206.707 333.556 207.005 333.342 207.386C333.131 207.762 333.026 208.198 333.026 208.693V215H331.476ZM351.786 215.21C350.814 215.21 349.975 214.996 349.27 214.566C348.569 214.133 348.028 213.528 347.647 212.753C347.27 211.974 347.082 211.067 347.082 210.033C347.082 209 347.27 208.089 347.647 207.3C348.028 206.508 348.558 205.89 349.237 205.448C349.92 205.001 350.717 204.778 351.628 204.778C352.154 204.778 352.673 204.865 353.185 205.04C353.698 205.216 354.164 205.5 354.584 205.895C355.005 206.284 355.34 206.801 355.59 207.445C355.839 208.089 355.964 208.882 355.964 209.823V210.48H348.186V209.14H354.387C354.387 208.571 354.274 208.062 354.046 207.616C353.822 207.169 353.503 206.816 353.087 206.558C352.675 206.3 352.189 206.17 351.628 206.17C351.011 206.17 350.476 206.324 350.025 206.63C349.578 206.933 349.235 207.327 348.994 207.813C348.753 208.299 348.632 208.82 348.632 209.376V210.27C348.632 211.032 348.764 211.678 349.027 212.208C349.294 212.733 349.664 213.134 350.137 213.41C350.61 213.682 351.16 213.817 351.786 213.817C352.193 213.817 352.561 213.761 352.89 213.647C353.222 213.528 353.509 213.353 353.75 213.121C353.991 212.885 354.177 212.591 354.309 212.241L355.806 212.661C355.649 213.169 355.384 213.616 355.012 214.001C354.639 214.382 354.179 214.68 353.632 214.895C353.084 215.105 352.469 215.21 351.786 215.21ZM359.873 208.93V215H358.323V204.909H359.82V206.486H359.952C360.188 205.973 360.548 205.562 361.029 205.251C361.511 204.935 362.133 204.778 362.895 204.778C363.578 204.778 364.176 204.918 364.689 205.198C365.201 205.474 365.6 205.895 365.884 206.46C366.169 207.02 366.311 207.73 366.311 208.588V215H364.761V208.693C364.761 207.9 364.555 207.283 364.143 206.841C363.732 206.394 363.167 206.17 362.448 206.17C361.953 206.17 361.511 206.278 361.121 206.492C360.736 206.707 360.431 207.02 360.208 207.432C359.985 207.844 359.873 208.343 359.873 208.93ZM373.533 204.909V206.223H368.303V204.909H373.533ZM369.828 202.491H371.378V212.109C371.378 212.547 371.442 212.876 371.569 213.095C371.7 213.309 371.866 213.454 372.068 213.528C372.274 213.598 372.49 213.634 372.718 213.634C372.889 213.634 373.029 213.625 373.139 213.607C373.248 213.585 373.336 213.568 373.401 213.555L373.717 214.947C373.612 214.987 373.465 215.026 373.277 215.066C373.088 215.109 372.85 215.131 372.561 215.131C372.123 215.131 371.693 215.037 371.273 214.849C370.857 214.661 370.511 214.374 370.235 213.988C369.963 213.603 369.828 213.117 369.828 212.53V202.491ZM378.835 215.237C378.195 215.237 377.615 215.116 377.094 214.875C376.572 214.63 376.159 214.277 375.852 213.817C375.545 213.353 375.392 212.793 375.392 212.136C375.392 211.558 375.506 211.089 375.734 210.73C375.961 210.366 376.266 210.082 376.647 209.876C377.028 209.67 377.448 209.517 377.908 209.416C378.372 209.311 378.839 209.228 379.308 209.166C379.921 209.087 380.418 209.028 380.799 208.989C381.184 208.945 381.465 208.873 381.64 208.772C381.819 208.671 381.909 208.496 381.909 208.246V208.194C381.909 207.546 381.732 207.042 381.377 206.683C381.027 206.324 380.494 206.144 379.781 206.144C379.04 206.144 378.46 206.306 378.04 206.63C377.619 206.954 377.324 207.3 377.153 207.668L375.681 207.143C375.944 206.53 376.294 206.052 376.732 205.711C377.175 205.365 377.656 205.124 378.178 204.988C378.703 204.848 379.22 204.778 379.728 204.778C380.052 204.778 380.424 204.817 380.845 204.896C381.27 204.97 381.679 205.126 382.073 205.362C382.472 205.599 382.803 205.956 383.065 206.433C383.328 206.911 383.46 207.55 383.46 208.352V215H381.909V213.634H381.83C381.725 213.853 381.55 214.087 381.305 214.336C381.059 214.586 380.733 214.799 380.326 214.974C379.919 215.149 379.421 215.237 378.835 215.237ZM379.071 213.844C379.684 213.844 380.201 213.723 380.621 213.482C381.046 213.242 381.366 212.931 381.581 212.55C381.8 212.169 381.909 211.768 381.909 211.347V209.928C381.843 210.007 381.699 210.079 381.476 210.145C381.257 210.206 381.003 210.261 380.713 210.309C380.429 210.353 380.151 210.393 379.879 210.428C379.612 210.458 379.395 210.484 379.229 210.506C378.826 210.559 378.449 210.644 378.099 210.763C377.753 210.876 377.472 211.049 377.258 211.282C377.048 211.509 376.942 211.82 376.942 212.214C376.942 212.753 377.142 213.161 377.54 213.436C377.943 213.708 378.454 213.844 379.071 213.844ZM393.437 207.169L392.044 207.563C391.957 207.331 391.828 207.106 391.657 206.887C391.49 206.663 391.263 206.479 390.974 206.335C390.684 206.19 390.314 206.118 389.863 206.118C389.246 206.118 388.731 206.26 388.319 206.545C387.912 206.825 387.708 207.182 387.708 207.616C387.708 208.001 387.849 208.306 388.129 208.529C388.409 208.752 388.847 208.938 389.443 209.087L390.941 209.455C391.843 209.674 392.515 210.009 392.958 210.46C393.4 210.907 393.621 211.483 393.621 212.188C393.621 212.766 393.455 213.283 393.122 213.739C392.793 214.194 392.333 214.553 391.742 214.816C391.151 215.079 390.463 215.21 389.679 215.21C388.65 215.21 387.798 214.987 387.124 214.54C386.449 214.093 386.022 213.441 385.843 212.582L387.314 212.214C387.454 212.758 387.719 213.165 388.109 213.436C388.503 213.708 389.018 213.844 389.653 213.844C390.376 213.844 390.949 213.69 391.374 213.384C391.803 213.073 392.018 212.701 392.018 212.267C392.018 211.917 391.895 211.623 391.65 211.387C391.405 211.146 391.028 210.966 390.52 210.848L388.838 210.454C387.914 210.235 387.235 209.895 386.802 209.436C386.373 208.971 386.158 208.391 386.158 207.695C386.158 207.125 386.318 206.622 386.638 206.184C386.962 205.746 387.402 205.402 387.958 205.152C388.519 204.903 389.154 204.778 389.863 204.778C390.862 204.778 391.646 204.997 392.215 205.435C392.789 205.873 393.196 206.451 393.437 207.169Z" fill="#202072"/>
</g>
<defs>
<clipPath id="clip0_1_38">
<rect width="438" height="247" fill="white"/>
</clipPath>
</defs>
</svg>
