<svg width="40" height="40" viewBox="0 0 40 40" fill="none" xmlns="http://www.w3.org/2000/svg">
<path d="M20 36.6666C29.205 36.6666 36.6667 29.205 36.6667 20C36.6667 10.795 29.205 3.33331 20 3.33331C10.795 3.33331 3.33337 10.795 3.33337 20C3.33337 23.035 4.14504 25.8833 5.56337 28.3333L4.16671 35.8333L11.6667 34.4366C14.1993 35.9017 17.0742 36.6711 20 36.6666Z" stroke="white" stroke-width="1.5" stroke-linecap="round" stroke-linejoin="round"/>
<path d="M25 25L29 29M11 19C11 21.1217 11.8429 23.1566 13.3431 24.6569C14.8434 26.1571 16.8783 27 19 27C21.1217 27 23.1566 26.1571 24.6569 24.6569C26.1571 23.1566 27 21.1217 27 19C27 16.8783 26.1571 14.8434 24.6569 13.3431C23.1566 11.8429 21.1217 11 19 11C16.8783 11 14.8434 11.8429 13.3431 13.3431C11.8429 14.8434 11 16.8783 11 19Z" stroke="white" stroke-width="1.5" stroke-linecap="round" stroke-linejoin="round"/>
</svg>
